<svg width="1440" height="1104" viewBox="0 0 1440 1104" fill="none" xmlns="http://www.w3.org/2000/svg">
<path d="M239.234 159.861C-145.935 82.2008 -209.326 210.073 -248.878 141.689L-352.71 1171.68L1631.89 1331.22L1726 160C1713.62 159.934 1353.01 125.041 1229.39 160.206C1004.39 224.208 864.499 253.819 796.499 253.818C531.207 253.815 574.398 227.439 239.234 159.861Z" fill="url(#paint0_linear_282:128)"/>
<path d="M1202 170C1545.58 49.216 1504.22 106.227 1541 53L1557 1148H-74L-107 220C-96.8877 261.776 -67.2693 242.821 38 241C169.587 238.724 423.422 343.011 767 318C880.725 309.721 981.45 247.533 1202 170Z" fill="black"/>
<defs>
<linearGradient id="paint0_linear_282:128" x1="563.776" y1="196.481" x2="60.2725" y2="386.972" gradientUnits="userSpaceOnUse">
<stop stop-color="#0C8D5D"/>
<stop offset="1"/>
<stop offset="1" stop-color="#221F20"/>
</linearGradient>
</defs>
</svg>
