<svg width="52" height="51" viewBox="0 0 52 51" fill="none" xmlns="http://www.w3.org/2000/svg">
<path d="M13.2457 51C13.1491 51 13.0524 50.9787 12.9611 50.9413C12.7032 50.8293 12.5367 50.5787 12.5367 50.296V39.3953H0.709018C0.31691 39.3953 0 39.0806 0 38.6913V0.703963C0 0.31465 0.31691 0 0.709018 0H51.291C51.6831 0 52 0.31465 52 0.703963V38.6913C52 39.0806 51.6831 39.3953 51.291 39.3953H26.2713L13.7238 50.8133C13.5895 50.936 13.4176 51 13.2457 51ZM1.41804 37.9874H13.2457C13.6378 37.9874 13.9548 38.302 13.9548 38.6913V48.6961L25.5193 38.174C25.6482 38.0567 25.8201 37.9874 25.9973 37.9874H50.5766V1.40793H1.41804V37.9874Z" fill="#0C8D5D"/>
<path d="M18.2883 28.6608C18.0946 28.433 18 28.1574 18 27.8394C18 27.5215 18.0946 27.2406 18.2883 27.018C18.482 26.7901 18.7162 26.6789 18.9865 26.6789C19.2748 26.6789 19.518 26.7901 19.7117 27.018C19.9054 27.2459 20 27.5215 20 27.8394C20 28.1574 19.9054 28.4383 19.7117 28.6608C19.518 28.8887 19.2793 29 18.9865 29C18.7162 29 18.482 28.8887 18.2883 28.6608ZM18.2883 9H19.6892L19.4459 23.1759H18.5315L18.2883 9Z" fill="#0C8D5D"/>
<path d="M30.1994 21.1442C30.4801 20.5496 30.8171 20.0497 31.2102 19.634C31.6033 19.2184 32.1256 18.7395 32.7882 18.1976C33.6923 17.4451 34.3606 16.7822 34.793 16.2086C35.2254 15.6351 35.4388 14.909 35.4388 14.0197C35.4388 12.9095 34.9783 12.0097 34.0517 11.3099C33.1308 10.6154 31.8335 10.2681 30.1657 10.2681C28.8235 10.2681 27.6554 10.4628 26.6727 10.8469C25.6899 11.231 24.8363 11.8203 24.1119 12.6096L23 11.794C24.6679 9.93133 27.0826 9 30.2555 9C32.3053 9 33.9394 9.43673 35.1637 10.3102C36.3879 11.1836 37 12.357 37 13.8198C37 14.609 36.8652 15.2983 36.5957 15.8929C36.3261 16.4875 35.9948 16.9926 35.6017 17.4136C35.2086 17.8345 34.6807 18.3239 34.0237 18.8658C33.4003 19.392 32.9174 19.834 32.5804 20.1918C32.2379 20.5496 31.9515 20.9758 31.71 21.4757C31.4685 21.9755 31.3506 22.5543 31.3506 23.212H29.7838C29.7782 22.428 29.9186 21.7388 30.1994 21.1442ZM29.6883 28.6632C29.4469 28.437 29.3289 28.1634 29.3289 27.8477C29.3289 27.532 29.4469 27.2531 29.6883 27.0321C29.9298 26.8058 30.2218 26.6953 30.5588 26.6953C30.9182 26.6953 31.2214 26.8058 31.4629 27.0321C31.7044 27.2584 31.8223 27.532 31.8223 27.8477C31.8223 28.1634 31.7044 28.4423 31.4629 28.6632C31.2214 28.8842 30.9238 29 30.5588 29C30.2218 29 29.9298 28.8895 29.6883 28.6632Z" fill="#0C8D5D"/>
</svg>
