<svg width="43" height="33" viewBox="0 0 43 33" fill="none" xmlns="http://www.w3.org/2000/svg">
<path d="M0 5.83609C0 4.41032 0.561903 3.04294 1.5621 2.03477C2.56229 1.02659 3.91885 0.460205 5.33333 0.460205H37.3333C38.7478 0.460205 40.1044 1.02659 41.1046 2.03477C42.1048 3.04294 42.6667 4.41032 42.6667 5.83609V27.3396C42.6667 28.7654 42.1048 30.1328 41.1046 31.141C40.1044 32.1491 38.7478 32.7155 37.3333 32.7155H5.33333C3.91885 32.7155 2.56229 32.1491 1.5621 31.141C0.561903 30.1328 0 28.7654 0 27.3396V5.83609ZM5.33333 3.14815C4.62609 3.14815 3.94781 3.43134 3.44772 3.93543C2.94762 4.43952 2.66667 5.1232 2.66667 5.83609V8.52403H40V5.83609C40 5.1232 39.7191 4.43952 39.219 3.93543C38.7189 3.43134 38.0406 3.14815 37.3333 3.14815H5.33333ZM40 13.8999H2.66667V27.3396C2.66667 28.0525 2.94762 28.7362 3.44772 29.2403C3.94781 29.7444 4.62609 30.0276 5.33333 30.0276H37.3333C38.0406 30.0276 38.7189 29.7444 39.219 29.2403C39.7191 28.7362 40 28.0525 40 27.3396V13.8999Z" fill="#0C8D5D"/>
<path d="M5.32812 21.9611C5.32812 21.2482 5.60908 20.5646 6.10917 20.0605C6.60927 19.5564 7.28755 19.2732 7.99479 19.2732H10.6615C11.3687 19.2732 12.047 19.5564 12.5471 20.0605C13.0472 20.5646 13.3281 21.2482 13.3281 21.9611V24.6491C13.3281 25.362 13.0472 26.0457 12.5471 26.5497C12.047 27.0538 11.3687 27.337 10.6615 27.337H7.99479C7.28755 27.337 6.60927 27.0538 6.10917 26.5497C5.60908 26.0457 5.32813 25.362 5.32812 24.6491V21.9611Z" fill="#0C8D5D"/>
</svg>
