<svg width="17" height="17" viewBox="0 0 17 17" fill="inherit" xmlns="http://www.w3.org/2000/svg">
<path d="M16.4868 0.029246L0.228299 7.19263C0.160566 7.22507 0.02817 7.27914 0.0622282 7.34813C0.0216393 7.41711 0 7.49797 0 7.58065C0 7.66332 0.0216393 7.74418 0.0622282 7.81316C0.102817 7.88215 0.160566 7.93622 0.228299 7.96866L3.79405 9.80726C3.84177 9.83243 3.88436 9.8684 3.91912 9.91291C3.95389 9.95743 3.98009 10.0095 3.99608 10.0659L5.56629 15.5778C5.58425 15.6423 5.61577 15.701 5.65818 15.749C5.70059 15.797 5.75265 15.8329 5.80998 15.8535C5.86731 15.8742 5.92823 15.8791 5.9876 15.8678C6.04697 15.8565 6.10305 15.8294 6.15113 15.7887L8.83784 13.5163C8.90169 13.466 8.97781 13.4389 9.05583 13.4389C9.13385 13.4389 9.20997 13.466 9.27381 13.5163L13.7753 16.9269C13.8271 16.9665 13.8869 16.9909 13.9493 16.9979C14.0117 17.0049 14.0746 16.9943 14.1324 16.967C14.1902 16.9397 14.241 16.8966 14.2801 16.8416C14.3193 16.7867 14.3456 16.7216 14.3566 16.6523L16.9937 0.498846C17.0059 0.424827 17.0003 0.348479 16.9774 0.277724C16.9545 0.20697 16.9151 0.144388 16.8634 0.0964728C16.8117 0.0485574 16.7495 0.0170544 16.6833 0.00523315C16.6171 -0.00658812 16.5492 0.00170278 16.4868 0.029246ZM6.62963 10.5913L6.14404 13.6874L4.89638 9.25409L13.4811 3.28461L6.62963 10.5913Z" fill="inherit"/>
</svg>
