<svg width="75" height="100" viewBox="0 0 75 100" fill="none" xmlns="http://www.w3.org/2000/svg">
<path d="M74.9997 42L6.99998 0L0 13L22.9999 27C13.3091 29.9081 5.99998 39.79 5.99998 51C5.99998 61.7129 12.9608 70.6793 21.9999 74L0 87L6.99998 100L74.9997 58L69.9998 50L74.9997 42ZM19.9999 51C19.9999 45.4621 23.7771 41 28.9999 41C34.2227 41 38.9999 45.4621 38.9999 51C38.9999 56.5379 34.2227 61 28.9999 61C23.7771 61.005 19.9999 56.5379 19.9999 51ZM51.9998 55C52.2718 53.5037 51.9998 52.5808 51.9998 51C51.9998 48.932 52.4546 46.9189 51.9998 45L59.9998 50L51.9998 55Z" fill="#0C8D5D"/>
</svg>
