<?xml version="1.0" standalone="no"?>
<!DOCTYPE svg PUBLIC "-//W3C//DTD SVG 20010904//EN"
 "http://www.w3.org/TR/2001/REC-SVG-20010904/DTD/svg10.dtd">
<svg version="1.0" xmlns="http://www.w3.org/2000/svg"
 width="100.000000pt" height="100.000000pt" viewBox="0 0 100.000000 100.000000"
 preserveAspectRatio="xMidYMid meet">
<metadata>
Created by potrace 1.14, written by Peter Selinger 2001-2017
</metadata>
<g transform="translate(0.000000,100.000000) scale(0.100000,-0.100000)"
fill="#000000" stroke="none">
<path d="M196 992 c-2 -4 -18 -33 -35 -64 l-31 -57 87 -54 c49 -29 99 -60 113
-67 l24 -13 -24 -16 c-97 -64 -141 -139 -136 -235 5 -94 39 -154 120 -211 l29
-21 -94 -53 c-131 -75 -124 -64 -88 -130 17 -31 33 -59 36 -63 4 -7 17 -1 93
47 19 13 150 93 290 180 140 86 265 164 277 171 l23 14 -25 40 -25 40 25 40
25 40 -57 35 c-32 20 -132 82 -223 138 -345 214 -399 246 -404 239z m274 -419
c66 -38 66 -128 0 -166 -39 -24 -74 -21 -107 7 -24 21 -28 32 -28 76 0 44 4
55 28 76 33 28 68 31 107 7z m221 -50 c16 -10 29 -20 29 -24 0 -4 -16 -16 -35
-28 l-35 -20 0 44 c0 25 3 45 6 45 3 0 19 -8 35 -17z"/>
</g>
</svg>
