<svg xmlns="http://www.w3.org/2000/svg" xmlns:xlink="http://www.w3.org/1999/xlink"><symbol id="icon-card" viewBox="0 0 43 33">
<path d="M0 5.83609C0 4.41032 0.561903 3.04294 1.5621 2.03477C2.56229 1.02659 3.91885 0.460205 5.33333 0.460205H37.3333C38.7478 0.460205 40.1044 1.02659 41.1046 2.03477C42.1048 3.04294 42.6667 4.41032 42.6667 5.83609V27.3396C42.6667 28.7654 42.1048 30.1328 41.1046 31.141C40.1044 32.1491 38.7478 32.7155 37.3333 32.7155H5.33333C3.91885 32.7155 2.56229 32.1491 1.5621 31.141C0.561903 30.1328 0 28.7654 0 27.3396V5.83609ZM5.33333 3.14815C4.62609 3.14815 3.94781 3.43134 3.44772 3.93543C2.94762 4.43952 2.66667 5.1232 2.66667 5.83609V8.52403H40V5.83609C40 5.1232 39.7191 4.43952 39.219 3.93543C38.7189 3.43134 38.0406 3.14815 37.3333 3.14815H5.33333ZM40 13.8999H2.66667V27.3396C2.66667 28.0525 2.94762 28.7362 3.44772 29.2403C3.94781 29.7444 4.62609 30.0276 5.33333 30.0276H37.3333C38.0406 30.0276 38.7189 29.7444 39.219 29.2403C39.7191 28.7362 40 28.0525 40 27.3396V13.8999Z" fill="#0C8D5D"/>
<path d="M5.32812 21.9611C5.32812 21.2482 5.60908 20.5646 6.10917 20.0605C6.60927 19.5564 7.28755 19.2732 7.99479 19.2732H10.6615C11.3687 19.2732 12.047 19.5564 12.5471 20.0605C13.0472 20.5646 13.3281 21.2482 13.3281 21.9611V24.6491C13.3281 25.362 13.0472 26.0457 12.5471 26.5497C12.047 27.0538 11.3687 27.337 10.6615 27.337H7.99479C7.28755 27.337 6.60927 27.0538 6.10917 26.5497C5.60908 26.0457 5.32813 25.362 5.32812 24.6491V21.9611Z" fill="#0C8D5D"/>
</symbol><symbol id="icon-cross" viewBox="0 0 30 30">
<rect width="1.00986" height="41.4165" transform="matrix(0.707107 0.707106 -0.707107 0.707106 29.2861 0)" fill="#ACADAC"/>
<rect width="1.00986" height="41.4165" transform="matrix(0.707107 -0.707106 0.707107 0.707106 0 0.714111)" fill="#ACADAC"/>
</symbol><symbol id="icon-document" viewBox="0 0 29 41">
<path d="M28.1429 10.94L18.1429 0.860213C17.8571 0.57222 17.5714 0.428223 17.1429 0.428223H2.85714C1.28571 0.428223 0 1.7242 0 3.30816V37.8674C0 39.4514 1.28571 40.7474 2.85714 40.7474H25.7143C27.2857 40.7474 28.5714 39.4514 28.5714 37.8674V11.948C28.5714 11.516 28.4286 11.228 28.1429 10.94ZM17.1429 3.88415L25.1429 11.948H17.1429V3.88415ZM25.7143 37.8674H2.85714V3.30816H14.2857V11.948C14.2857 13.5319 15.5714 14.8279 17.1429 14.8279H25.7143V37.8674Z" fill="#0C8D5D"/>
<path d="M5.71387 29.2277H22.8567V32.1076H5.71387V29.2277ZM5.71387 20.5879H22.8567V23.4678H5.71387V20.5879Z" fill="#0C8D5D"/>
</symbol><symbol id="icon-tg" viewBox="0 0 17 17">
<path d="M16.4868 0.029246L0.228299 7.19263C0.160566 7.22507 0.02817 7.27914 0.0622282 7.34813C0.0216393 7.41711 0 7.49797 0 7.58065C0 7.66332 0.0216393 7.74418 0.0622282 7.81316C0.102817 7.88215 0.160566 7.93622 0.228299 7.96866L3.79405 9.80726C3.84177 9.83243 3.88436 9.8684 3.91912 9.91291C3.95389 9.95743 3.98009 10.0095 3.99608 10.0659L5.56629 15.5778C5.58425 15.6423 5.61577 15.701 5.65818 15.749C5.70059 15.797 5.75265 15.8329 5.80998 15.8535C5.86731 15.8742 5.92823 15.8791 5.9876 15.8678C6.04697 15.8565 6.10305 15.8294 6.15113 15.7887L8.83784 13.5163C8.90169 13.466 8.97781 13.4389 9.05583 13.4389C9.13385 13.4389 9.20997 13.466 9.27381 13.5163L13.7753 16.9269C13.8271 16.9665 13.8869 16.9909 13.9493 16.9979C14.0117 17.0049 14.0746 16.9943 14.1324 16.967C14.1902 16.9397 14.241 16.8966 14.2801 16.8416C14.3193 16.7867 14.3456 16.7216 14.3566 16.6523L16.9937 0.498846C17.0059 0.424827 17.0003 0.348479 16.9774 0.277724C16.9545 0.20697 16.9151 0.144388 16.8634 0.0964728C16.8117 0.0485574 16.7495 0.0170544 16.6833 0.00523315C16.6171 -0.00658812 16.5492 0.00170278 16.4868 0.029246ZM6.62963 10.5913L6.14404 13.6874L4.89638 9.25409L13.4811 3.28461L6.62963 10.5913Z" fill="inherit"/>
</symbol><symbol id="icon-whatsapp" viewBox="0 0 19 19">
<path fill-rule="evenodd" clip-rule="evenodd" d="M9.26441 0.220398C7.68196 0.220774 6.12798 0.641372 4.76137 1.43919C3.39475 2.23701 2.26451 3.38344 1.48619 4.76126C0.70788 6.13908 0.309416 7.69887 0.331535 9.28117C0.353655 10.8635 0.795564 12.4115 1.61209 13.7671L0 18.5625L4.94748 16.9769C6.14085 17.6356 7.46911 18.0124 8.83055 18.0785C10.192 18.1447 11.5505 17.8985 12.8022 17.3587C14.0538 16.8189 15.1653 15.9999 16.0516 14.9643C16.9379 13.9288 17.5755 12.7041 17.9156 11.3842C18.2556 10.0642 18.2892 8.68398 18.0136 7.34908C17.738 6.01417 17.1606 4.76002 16.3257 3.68264C15.4907 2.60526 14.4203 1.73323 13.1964 1.13329C11.9724 0.533363 10.6275 0.221443 9.26441 0.221418V0.220398ZM9.26441 16.5902C7.80987 16.5933 6.38672 16.1674 5.17297 15.3659L2.3161 16.2842L3.2456 13.5222C2.26707 12.1697 1.77219 10.5273 1.84069 8.85942C1.90918 7.19151 2.53704 5.5952 3.62317 4.32755C4.7093 3.05991 6.19048 2.19471 7.82816 1.8713C9.46585 1.5479 11.1647 1.7851 12.6512 2.54471C14.1377 3.30432 15.3252 4.54213 16.0226 6.0588C16.72 7.57546 16.8866 9.2827 16.4956 10.9056C16.1046 12.5285 15.1788 13.9725 13.8673 15.0052C12.5557 16.0379 10.9347 16.5991 9.26543 16.5984L9.26441 16.5902ZM13.4538 11.1826C13.2293 11.0602 12.1274 10.4684 11.9233 10.3827C11.7193 10.297 11.5662 10.2551 11.405 10.4776C11.2438 10.7 10.7928 11.1969 10.65 11.3438C10.5071 11.4907 10.3776 11.505 10.1541 11.3826C9.4917 11.0898 8.88539 10.6838 8.36246 10.1827C7.8813 9.7029 7.47386 9.15449 7.15339 8.55531C7.02789 8.32268 7.15339 8.2033 7.27072 8.09413C7.38806 7.98495 7.50846 7.83599 7.62783 7.70743C7.7256 7.59569 7.80702 7.47065 7.86965 7.33604C7.90296 7.27465 7.9204 7.2059 7.9204 7.13606C7.9204 7.06621 7.90296 6.99747 7.86965 6.93608C7.81659 6.81976 7.40337 5.68007 7.22991 5.21685C7.05646 4.75363 6.86464 4.82199 6.732 4.81689C6.59936 4.81179 6.44733 4.7873 6.29531 4.7822C6.17955 4.78068 6.06474 4.80321 5.95814 4.84834C5.85153 4.89348 5.75546 4.96025 5.67598 5.04442C5.45866 5.26481 4.84953 5.79435 4.80668 6.91669C4.76382 8.03903 5.5413 9.15321 5.64945 9.30932C5.75761 9.46542 7.12788 11.8989 9.41133 12.8957C11.6948 13.8925 11.7081 13.5905 12.1274 13.5681C12.5467 13.5456 13.4967 13.0671 13.7068 12.5417C13.917 12.0162 13.9333 11.5601 13.8803 11.4632C13.8272 11.3663 13.6772 11.3061 13.4538 11.1836V11.1826Z" fill="inherit"/>
</symbol></svg>