<svg width="32" height="32" viewBox="0 0 32 32" fill="none" xmlns="http://www.w3.org/2000/svg">
<path d="M10.3677 7.4931L9.82304 6.13121L9.81874 6.12048L9.81572 6.10932C9.8155 6.10854 9.81529 6.10775 9.81509 6.10697L9.8147 6.10544L10.3677 7.4931ZM10.3677 7.4931L10.9025 9.63246L10.3677 7.4931ZM11.9849 11.9859L12.123 12.124C12.121 12.1258 12.1188 12.1277 12.1165 12.1295C12.1077 12.1366 12.0948 12.1457 12.0778 12.1539C12.0729 12.1562 12.0674 12.1586 12.0614 12.1608C12.0466 12.1663 12.0285 12.171 12.0078 12.1727C12.0002 12.1733 11.9926 12.1735 11.9849 12.1732C11.9616 12.1724 11.9378 12.1675 11.9148 12.1579C11.8865 12.146 11.8652 12.1297 11.8494 12.1135C11.8346 12.0966 11.8225 12.0771 11.814 12.0556C11.8042 12.0309 11.8006 12.0076 11.8001 11.9873C11.8477 11.987 11.8889 11.9867 11.9204 11.9864C11.9569 11.9861 11.9801 11.9859 11.9849 11.9859ZM11.9849 11.9859L12.1281 12.1181C12.1335 12.1113 12.1394 12.1029 12.1452 12.0928L11.9849 11.9859ZM11.9849 11.9859L12.1558 12.0714C12.1577 12.0668 12.1596 12.0619 12.1614 12.0565L11.9849 11.9859ZM11.9849 11.9859L12.1646 12.0458C12.1675 12.0352 12.1697 12.0233 12.1708 12.0103C12.1714 12.0023 12.1716 11.9942 12.1713 11.9859C12.1704 11.9658 12.1666 11.9451 12.1589 11.9245C12.1489 11.8978 12.1348 11.8767 12.1201 11.8605C12.1184 11.8588 12.1168 11.8571 12.115 11.8554C12.0712 11.8129 12.0215 11.8026 11.9947 11.8002C11.9919 11.8 11.9891 11.8 11.9863 11.8C11.9859 11.8481 11.9856 11.8897 11.9854 11.9214C11.9851 11.9579 11.9849 11.9812 11.9849 11.9859ZM12.1778 10.9451L12.1748 10.9341L12.1706 10.9235L10.2015 6.00034C10.201 5.99396 10.2003 5.98095 10.201 5.95921C10.2022 5.92548 10.2063 5.88285 10.2129 5.83192C10.2211 5.76922 10.2312 5.70567 10.2418 5.63873C10.2494 5.59159 10.2571 5.54278 10.2647 5.49138C10.281 5.37969 10.2968 5.25271 10.2894 5.15387C10.2861 5.10951 10.2763 5.03231 10.2281 4.96694C10.2002 4.92905 10.1581 4.89369 10.1009 4.87636C10.0465 4.85987 9.99569 4.86495 9.95634 4.87576C9.78068 4.92344 9.73169 5.09494 9.71603 5.18186C9.6971 5.28698 9.70016 5.40992 9.71017 5.5225C9.73036 5.74978 9.78471 5.99291 9.81493 6.10636C9.81498 6.10657 9.81503 6.10678 9.81509 6.10698L10.6277 9.35756L2.2456 0.974697C2.16442 0.893514 2.04472 0.85475 1.9493 0.833716C1.84438 0.810589 1.72535 0.8 1.61014 0.8C1.49492 0.8 1.37589 0.810589 1.27097 0.833716C1.17555 0.85475 1.05585 0.893514 0.974672 0.974697C0.8935 1.05588 0.854742 1.17558 0.833712 1.27101C0.810588 1.37594 0.8 1.49497 0.8 1.61019C0.8 1.72542 0.810588 1.84445 0.833712 1.94938C0.854742 2.0448 0.8935 2.16451 0.974672 2.24569L9.35678 10.6286L6.10688 9.81605C5.99437 9.78564 5.75092 9.73123 5.52316 9.71102C5.4104 9.70101 5.28725 9.69797 5.18197 9.71687C5.0952 9.73246 4.92311 9.78128 4.87536 9.95721C4.86446 9.99739 4.85969 10.0494 4.87751 10.1047C4.89585 10.1616 4.93189 10.2027 4.96949 10.2296C5.03452 10.2763 5.11078 10.2858 5.15512 10.289C5.25371 10.2962 5.38025 10.2807 5.49181 10.2645C5.54252 10.2571 5.59081 10.2495 5.63746 10.2421C5.70478 10.2315 5.76869 10.2214 5.83151 10.2134C5.88232 10.2069 5.92484 10.2029 5.95852 10.2018C5.98031 10.2011 5.99336 10.2018 5.99976 10.2023L10.9225 12.1716L10.9331 12.1759L10.9442 12.1789C10.9635 12.1842 10.9812 12.1856 10.9841 12.1859L10.9844 12.1859C10.9909 12.1865 10.9975 12.1869 11.003 12.1872C11.0144 12.1877 11.0281 12.1881 11.043 12.1884C11.0732 12.1891 11.1133 12.1895 11.1595 12.1897C11.252 12.1901 11.3722 12.1898 11.4918 12.1893C11.6115 12.1887 11.7311 12.1879 11.8228 12.1872L11.906 12.1865C11.9266 12.1942 11.9452 12.1973 11.9584 12.1985C11.9619 12.1988 11.9653 12.199 11.9686 12.1992C11.9788 12.2001 11.9892 12.2003 11.9996 12.1996C12.0625 12.1956 12.1037 12.1641 12.1212 12.1484C12.123 12.1468 12.1248 12.1451 12.1265 12.1435C12.1345 12.1368 12.144 12.1279 12.1535 12.1165C12.1689 12.098 12.1955 12.0589 12.1994 12.0016C12.1996 11.9982 12.1997 11.9948 12.1998 11.9914C12.2009 11.9679 12.1981 11.9391 12.1859 11.9082C12.1857 11.9079 12.1856 11.9075 12.1855 11.9072L12.1861 11.8238C12.1868 11.7321 12.1877 11.6125 12.1882 11.4928C12.1888 11.3732 12.1891 11.253 12.1886 11.1605C12.1884 11.1143 12.188 11.0741 12.1874 11.044C12.1871 11.0291 12.1867 11.0153 12.1861 11.004C12.186 11.0015 12.1858 10.9988 12.1857 10.996C12.1854 10.9926 12.1852 10.989 12.1848 10.9854L12.1848 10.985C12.1846 10.9822 12.1831 10.9645 12.1778 10.9451ZM10.1188 5.21935C10.1189 5.21956 10.1182 5.22142 10.1165 5.2243C10.1178 5.22058 10.1187 5.21914 10.1188 5.21935ZM12.1426 11.8417C12.126 11.8227 12.1024 11.8028 12.0693 11.7889C12.042 11.7775 12.0137 11.7727 11.9865 11.7734C11.9886 11.4897 11.9912 11.0209 11.9849 10.9978L12.1426 11.8417ZM5.2239 10.1175C5.221 10.1192 5.21912 10.1198 5.21891 10.1197C5.21869 10.1196 5.22014 10.1188 5.2239 10.1175ZM5.17141 9.88867C5.16991 9.88841 5.16924 9.88823 5.16928 9.8882L5.17141 9.88867ZM9.91357 5.21351C9.91082 5.21038 9.90833 5.20727 9.90609 5.20424C9.89497 5.18914 9.89054 5.17664 9.88916 5.17164C9.88888 5.17 9.88867 5.16926 9.88864 5.16929L9.91357 5.21351Z" fill="white" stroke="white" stroke-width="0.4"/>
<path d="M19.8002 11.9802C19.7999 11.9875 19.8 11.9949 19.8004 12.0023C19.8043 12.0596 19.831 12.0987 19.8463 12.1171C19.8614 12.1353 19.8766 12.1471 19.8857 12.1535C19.8878 12.1553 19.89 12.1571 19.8924 12.1589C19.9077 12.1704 19.9313 12.1848 19.9631 12.1931C19.9775 12.1968 19.9927 12.199 20.0083 12.1994C20.009 12.1995 20.0097 12.1995 20.0103 12.1995C20.0201 12.2002 20.0315 12.2003 20.044 12.199C20.0564 12.1978 20.0744 12.1948 20.0944 12.1874L20.1765 12.1883C20.2682 12.1892 20.3879 12.1903 20.5077 12.1911C20.6273 12.1918 20.7478 12.1922 20.8406 12.1916C20.8869 12.1913 20.9275 12.1908 20.9582 12.1899C20.9734 12.1895 20.9878 12.1889 21.0001 12.1881C21.0061 12.1877 21.0136 12.1871 21.0214 12.1862L21.0217 12.1862C21.0248 12.1858 21.0472 12.1834 21.0714 12.1746L21.0714 12.1747L21.0773 12.1723L26.0001 10.2029C26.0064 10.2024 26.0194 10.2017 26.041 10.2024C26.0747 10.2036 26.1172 10.2077 26.168 10.2143C26.2305 10.2224 26.2937 10.2325 26.3604 10.2432C26.4075 10.2507 26.4564 10.2585 26.5078 10.2661C26.6194 10.2824 26.7462 10.2982 26.8452 10.2908C26.8898 10.2875 26.9665 10.2776 27.0316 10.2302C27.0693 10.2027 27.1047 10.1614 27.1227 10.1049C27.1401 10.05 27.1355 9.99848 27.1247 9.95843L27.1246 9.95774C27.0769 9.78209 26.9054 9.7331 26.8185 9.71745C26.7134 9.69852 26.5904 9.70158 26.4778 9.71158C26.2506 9.73178 26.0075 9.78612 25.894 9.81633C25.8938 9.81639 25.8936 9.81645 25.8934 9.81651L22.643 10.6292L31.0253 2.24575C31.0253 2.24574 31.0253 2.24573 31.0253 2.24573C31.1065 2.16455 31.1453 2.04483 31.1663 1.94941C31.1894 1.84448 31.2 1.72544 31.2 1.6102C31.2 1.49497 31.1894 1.37592 31.1663 1.27099C31.1453 1.17556 31.1065 1.05584 31.0253 0.974656C30.9441 0.89349 30.8244 0.854736 30.729 0.833708C30.6241 0.810587 30.5051 0.8 30.3899 0.8C30.2746 0.8 30.1556 0.810587 30.0507 0.833708C29.9553 0.854736 29.8356 0.89349 29.7544 0.974656L29.7544 0.974676L21.3722 9.35808L22.1847 6.10763C22.2151 5.99509 22.2695 5.75163 22.2897 5.52386C22.2997 5.41107 22.3027 5.28791 22.2838 5.18263C22.2683 5.09587 22.2194 4.92373 22.0435 4.87598L22.0428 4.8758C22.0028 4.86508 21.9512 4.86045 21.8963 4.87788C21.8398 4.89585 21.7985 4.93131 21.7711 4.96893C21.7236 5.03411 21.7138 5.11075 21.7104 5.1554C21.7031 5.25438 21.7188 5.38125 21.7352 5.49283C21.7427 5.54428 21.7505 5.59311 21.7581 5.64023C21.7687 5.70692 21.7788 5.7702 21.7869 5.8327C21.7935 5.88351 21.7976 5.92601 21.7988 5.95964C21.7996 5.9813 21.7989 5.99426 21.7983 6.00062L19.8292 10.9241L19.825 10.9347L19.822 10.9457C19.8167 10.965 19.8152 10.9827 19.815 10.9856L19.815 10.9859C19.8144 10.9925 19.814 10.999 19.8137 11.0045C19.8131 11.0159 19.8127 11.0296 19.8124 11.0445C19.8118 11.0745 19.8114 11.1146 19.8112 11.1607C19.8107 11.253 19.811 11.3729 19.8116 11.4923C19.8123 11.6557 19.8136 11.8165 19.8143 11.9087C19.8109 11.9173 19.8081 11.9261 19.8059 11.935C19.802 11.9512 19.8004 11.9665 19.8002 11.9802ZM22.1107 5.17282C22.111 5.17128 22.1112 5.17058 22.1112 5.17062L22.1107 5.17282ZM21.8832 5.22451C21.8815 5.2216 21.8809 5.21972 21.881 5.21951C21.8811 5.2193 21.8819 5.22075 21.8832 5.22451ZM26.776 10.118C26.7797 10.1192 26.7812 10.1201 26.781 10.1202C26.7808 10.1203 26.7789 10.1196 26.776 10.118ZM26.8277 9.89051C26.8292 9.89012 26.8299 9.88999 26.8299 9.89002L26.8277 9.89051Z" fill="white" stroke="white" stroke-width="0.4"/>
<path d="M20.1579 19.8985C20.1696 19.9135 20.1788 19.9298 20.1856 19.9466C20.1917 19.9607 20.1955 19.9739 20.1979 19.9851C20.1992 19.9915 20.2002 19.9976 20.2008 20.0033C20.2022 20.0033 20.2036 20.0032 20.2049 20.0032C20.2046 20.0008 20.2042 19.9982 20.2038 19.9954C20.2024 19.9871 20.1988 19.9688 20.1891 19.9471C20.1839 19.9358 20.1754 19.9198 20.1616 19.9029C20.1604 19.9014 20.1592 19.9 20.1579 19.8985ZM20.1579 19.8985C20.1476 19.8867 20.134 19.8738 20.1164 19.8623M20.1579 19.8985C20.157 19.8973 20.156 19.8962 20.1551 19.895C20.137 19.8728 20.1163 19.8572 20.0969 19.8465C20.0605 19.8264 20.0272 19.8229 20.0112 19.8221C19.9994 19.8215 19.9893 19.8221 19.9815 19.8229L20.1164 19.8623M20.1164 19.8623C20.1025 19.8527 20.0874 19.8449 20.0717 19.8391C20.039 19.827 20.0096 19.8258 19.9891 19.8272C19.9806 19.8278 19.9728 19.8288 19.9658 19.8302L20.1164 19.8623ZM21.44 24.6058L20.0131 21.0133L21.44 24.6058ZM21.44 24.6058L21.7955 26.0375L21.7954 26.0375L21.7957 26.0386L21.44 24.6058ZM21.9896 26.9845L22.0583 27.1723L22.0635 27.1702C22.0658 27.1693 22.073 27.1661 22.0822 27.1608C22.0868 27.1581 22.0948 27.1532 22.1042 27.1458C22.109 27.142 22.1153 27.1367 22.1222 27.1298C22.1289 27.123 22.1381 27.1129 22.1471 27.0992C22.1638 27.0739 22.1933 27.015 22.1738 26.9393C22.1635 26.8996 22.1436 26.8705 22.1235 26.85C22.1247 26.8654 22.1263 26.8716 22.1262 26.8717C22.1261 26.8717 22.1253 26.869 22.1232 26.8645C22.1188 26.8551 22.1082 26.8385 22.0908 26.8229C22.0898 26.8222 22.0888 26.8216 22.0878 26.8209C22.0746 26.9076 22.0447 26.9695 21.9896 26.9845ZM21.9896 26.9845C21.9375 26.9845 21.9212 26.9102 21.9224 26.8016M21.9896 26.9845L21.9224 26.8016M21.9224 26.8016C21.9216 26.8019 21.9208 26.8022 21.92 26.8026C21.9156 26.8044 21.9087 26.8075 21.9006 26.812C21.8978 26.8136 21.8938 26.8159 21.889 26.8191M21.9224 26.8016L21.889 26.8191M21.889 26.8191C21.8855 26.8229 21.8831 26.8263 21.8816 26.8289M21.889 26.8191L21.8835 26.8228C21.8828 26.8253 21.8821 26.8273 21.8816 26.8289M21.8816 26.8289C21.8799 26.8319 21.8792 26.8337 21.8793 26.8339C21.8794 26.8342 21.8803 26.8327 21.8816 26.8289ZM25.9996 21.8158L21.076 19.8325L21.0651 19.8281L21.0536 19.825C21.0214 19.8163 20.9789 19.8132 20.9536 19.8114C20.9198 19.8091 20.8779 19.8071 20.8315 19.8055C20.7385 19.8023 20.6222 19.8005 20.5067 19.8001C20.3913 19.7997 20.2748 19.8008 20.1815 19.8038C20.1371 19.8053 20.0961 19.8072 20.0623 19.8097C20.0592 19.8091 20.0561 19.8085 20.0532 19.808C20.0515 19.8077 20.0498 19.8075 20.0482 19.8073C20.0382 19.8057 20.0288 19.805 20.0201 19.8049C20.0133 19.8046 20.0064 19.8047 19.9995 19.8051C19.9635 19.8073 19.9342 19.8187 19.9134 19.8303C19.8931 19.8417 19.8785 19.8546 19.8691 19.864C19.8571 19.8761 19.8485 19.8878 19.8428 19.8967C19.8391 19.9014 19.8347 19.9075 19.8302 19.9148C19.8248 19.9236 19.8157 19.9398 19.8089 19.9618C19.8025 19.9826 19.7935 20.024 19.8071 20.0739C19.8086 20.0796 19.8104 20.0852 19.8125 20.0908L19.8118 20.1813C19.8111 20.2737 19.8103 20.3942 19.8097 20.5147C19.8091 20.6352 19.8089 20.7562 19.8093 20.8494C19.8095 20.8959 19.8099 20.9363 19.8105 20.9667C19.8109 20.9816 19.8113 20.9955 19.8118 21.0069C19.8121 21.0124 19.8125 21.019 19.8131 21.0255C19.8131 21.0256 19.8131 21.0257 19.8131 21.0258C19.8133 21.0287 19.8148 21.0463 19.82 21.0656L19.823 21.0765L19.8272 21.0871L21.796 26.0438C21.7963 26.0495 21.7967 26.0601 21.7962 26.0771C21.7953 26.1084 21.792 26.1487 21.7866 26.1974C21.7802 26.2548 21.7725 26.3121 21.7644 26.373C21.7578 26.4221 21.7509 26.4736 21.7441 26.5291C21.7304 26.6418 21.7182 26.7657 21.7237 26.8649C21.7263 26.912 21.7336 26.9756 21.7607 27.0336C21.7778 27.0703 21.8076 27.1122 21.8516 27.1426C21.864 27.153 21.8756 27.1603 21.8841 27.1649C21.8981 27.1726 21.9105 27.1773 21.9195 27.1801C21.9288 27.1831 21.9368 27.1849 21.9429 27.1861C21.9549 27.1884 21.9647 27.1892 21.9708 27.1895C21.9828 27.1902 21.9926 27.1897 21.9978 27.1893C22.009 27.1885 22.0187 27.187 22.0256 27.1857C22.0326 27.1845 22.0418 27.1825 22.052 27.1795C22.0569 27.178 22.0652 27.1754 22.075 27.1713C22.08 27.1692 22.0873 27.1659 22.0959 27.1611C22.1024 27.1575 22.1142 27.1505 22.1274 27.1393C22.235 27.0685 22.2697 26.9409 22.2823 26.8701C22.3012 26.7646 22.2982 26.6411 22.2882 26.5278C22.268 26.2987 22.2135 26.0535 22.1833 25.9396L21.37 22.6636L29.7537 31.1063L29.7537 31.1063C29.7889 31.1417 29.8287 31.1584 29.8502 31.1662C29.8749 31.1752 29.8998 31.1808 29.9211 31.1846C29.9638 31.1923 30.0126 31.1961 30.0606 31.1981C30.1578 31.2021 30.2765 31.1993 30.3905 31.1944C30.5056 31.1894 30.6208 31.182 30.7122 31.1759C30.7234 31.1751 30.7341 31.1744 30.7445 31.1737C30.7521 31.1732 30.7594 31.1727 30.7666 31.1722C30.7995 31.1912 30.8305 31.1968 30.8479 31.1987C30.8731 31.2015 30.8941 31.1993 30.9072 31.1972C30.9337 31.1931 30.9564 31.185 30.9727 31.1779C30.9894 31.1706 31.0098 31.1599 31.0297 31.1446C31.0397 31.1369 31.0536 31.125 31.0674 31.1084C31.0798 31.0932 31.1017 31.0628 31.1112 31.0182C31.1144 31.0034 31.1162 30.9869 31.1157 30.9693C31.1397 30.9152 31.1554 30.8587 31.1663 30.8088C31.1894 30.7033 31.2 30.5836 31.2 30.4677C31.2 30.3519 31.1894 30.2322 31.1663 30.1267C31.1453 30.0308 31.1067 29.9107 31.0258 29.8292C31.0258 29.8292 31.0257 29.8292 31.0257 29.8292L22.6384 21.3829L25.8919 22.2019C26.0045 22.2326 26.248 22.2874 26.4759 22.3077C26.5887 22.3178 26.712 22.3209 26.8175 22.3018C26.9049 22.286 27.0765 22.2366 27.1239 22.0605C27.1347 22.0204 27.1395 21.9687 27.1218 21.9136C27.1037 21.8568 27.0679 21.8156 27.0303 21.7884C26.9651 21.7414 26.8887 21.7317 26.8442 21.7285C26.7454 21.7213 26.6187 21.7369 26.5072 21.7532C26.4564 21.7607 26.4081 21.7683 26.3615 21.7757C26.2941 21.7864 26.2303 21.7966 26.1674 21.8046C26.1166 21.8112 26.0741 21.8152 26.0405 21.8163C26.0189 21.8171 26.0059 21.8164 25.9996 21.8158ZM26.8275 22.1288C26.829 22.1291 26.8297 22.1293 26.8297 22.1293L26.8275 22.1288ZM26.7748 21.9013C26.7777 21.8997 26.7795 21.899 26.7797 21.8991C26.7799 21.8992 26.7785 21.9 26.7748 21.9013ZM20.0174 20.0167C20.0158 20.0172 20.0143 20.0176 20.0131 20.0181L20.0174 20.0167ZM31.0257 31.1063C31.0258 31.1063 31.0258 31.1063 31.0258 31.1062L31.0257 31.1063ZM22.1828 25.9379L21.9896 25.9893L22.1831 25.939C22.183 25.9386 22.1829 25.9383 22.1828 25.9379ZM22.1961 26.0886C22.1973 26.0465 22.1967 25.9909 22.1833 25.9397L22.1225 26.8283C22.121 26.7686 22.1284 26.6825 22.1412 26.5774C22.1465 26.5341 22.153 26.4851 22.1596 26.4355C22.1686 26.3678 22.1778 26.2989 22.1842 26.2415C22.19 26.1886 22.1947 26.1359 22.1961 26.0886ZM21.8886 26.7997C21.8878 26.8044 21.8869 26.8085 21.8861 26.8122L21.7992 26.0518C21.8263 26.1563 21.8727 26.3702 21.8897 26.563C21.8987 26.6647 21.8981 26.7465 21.8886 26.7997Z" fill="white" stroke="white" stroke-width="0.4"/>
<mask id="path-4-outside-1_216:166" maskUnits="userSpaceOnUse" x="0" y="19" width="13" height="13" fill="black">
<rect fill="white" y="19" width="13" height="13"/>
<path d="M11.9868 20.0145C11.9838 20.0025 11.9898 20.0235 11.9868 20.0145C11.9689 19.9725 12.0225 20.0475 11.9868 20.0145C12.0285 20.0355 11.954 19.9815 11.9868 20.0145C11.9957 20.0175 11.9778 20.0085 11.9868 20.0145C12.0315 20.0145 11.9451 19.9995 11.9868 20.0145C12.0195 20.0055 11.954 20.0145 11.9868 20.0145L6.05736 22.0056C5.84884 22.0626 5.01252 21.7926 5.06912 22.0056C5.12572 22.2155 5.84586 22.0626 6.05736 22.0056L10.0103 21.01L1.11618 29.9698C0.961274 30.1258 0.961274 30.8094 1.11618 30.9653C1.19363 31.0433 1.01787 30.9653 1.11618 30.9653C1.21746 30.9653 2.02994 31.0433 2.10441 30.9653L10.9985 22.0056L10.0103 25.9877C9.95371 26.1977 9.80178 26.9262 10.0103 26.9832C10.0431 26.9922 9.97754 26.9832 10.0103 26.9832C10.1831 26.9832 9.96562 26.1647 10.0103 25.9877L11.9868 21.01C11.9957 20.9771 11.9868 20.0475 11.9868 20.0145C12.0017 20.0565 11.9898 19.9665 11.9868 20.0145Z"/>
</mask>
<path d="M11.9868 20.0145C11.9838 20.0025 11.9898 20.0235 11.9868 20.0145C11.9689 19.9725 12.0225 20.0475 11.9868 20.0145C12.0285 20.0355 11.954 19.9815 11.9868 20.0145C11.9957 20.0175 11.9778 20.0085 11.9868 20.0145C12.0315 20.0145 11.9451 19.9995 11.9868 20.0145C12.0195 20.0055 11.954 20.0145 11.9868 20.0145L6.05736 22.0056C5.84884 22.0626 5.01252 21.7926 5.06912 22.0056C5.12572 22.2155 5.84586 22.0626 6.05736 22.0056L10.0103 21.01L1.11618 29.9698C0.961274 30.1258 0.961274 30.8094 1.11618 30.9653C1.19363 31.0433 1.01787 30.9653 1.11618 30.9653C1.21746 30.9653 2.02994 31.0433 2.10441 30.9653L10.9985 22.0056L10.0103 25.9877C9.95371 26.1977 9.80178 26.9262 10.0103 26.9832C10.0431 26.9922 9.97754 26.9832 10.0103 26.9832C10.1831 26.9832 9.96562 26.1647 10.0103 25.9877L11.9868 21.01C11.9957 20.9771 11.9868 20.0475 11.9868 20.0145C12.0017 20.0565 11.9898 19.9665 11.9868 20.0145Z" fill="white"/>
<path d="M11.9868 20.0145L11.5986 20.1109L11.6033 20.1298L11.6098 20.1482L11.9868 20.0145ZM11.9868 20.0145L12.3665 19.8888L12.3613 19.8731L12.3548 19.8579L11.9868 20.0145ZM11.9868 20.0145L11.703 20.2964L11.7091 20.3026L11.7155 20.3085L11.9868 20.0145ZM11.9868 20.0145L11.7638 20.3466L11.7846 20.3606L11.8069 20.3718L11.9868 20.0145ZM11.9868 20.0145L11.8514 20.391L11.8595 20.3937L11.9868 20.0145ZM11.9868 20.0145L11.8809 19.6288L11.8701 19.6318L11.8594 19.6353L11.9868 20.0145ZM6.05736 22.0056L6.16281 22.3914L6.17385 22.3884L6.18469 22.3848L6.05736 22.0056ZM5.06912 22.0056L4.68254 22.1083L4.68291 22.1097L5.06912 22.0056ZM6.05736 22.0056L5.95966 21.6176L5.95329 21.6193L6.05736 22.0056ZM10.0103 21.01L10.2942 21.2918L11.3078 20.2708L9.91262 20.6222L10.0103 21.01ZM1.11618 29.9698L1.39999 30.2517L1.40006 30.2516L1.11618 29.9698ZM1.11618 30.9653L0.832367 31.2472L1.11618 30.9653ZM2.10441 30.9653L1.82048 30.6835L1.81513 30.6891L2.10441 30.9653ZM10.9985 22.0056L11.3868 22.1019L11.7359 20.695L10.7147 21.7238L10.9985 22.0056ZM10.0103 25.9877L10.3966 26.0918L10.3985 26.084L10.0103 25.9877ZM10.0103 26.9832L10.1162 26.5975L10.1158 26.5974L10.0103 26.9832ZM10.0103 25.9877L9.63854 25.8401L9.62888 25.8644L9.62248 25.8898L10.0103 25.9877ZM11.9868 21.01L12.3585 21.1577L12.3669 21.1365L12.3729 21.1146L11.9868 21.01ZM11.9868 20.0145L11.5875 19.9897L11.5868 20.0021V20.0145H11.9868ZM12.375 19.9181C12.375 19.9182 12.3752 19.9189 12.3755 19.9201C12.3757 19.9209 12.3763 19.9235 12.377 19.9269C12.3774 19.9286 12.378 19.9315 12.3787 19.9353C12.3791 19.9372 12.3796 19.9397 12.3801 19.9428C12.3806 19.9458 12.3813 19.9502 12.3821 19.9557C12.3828 19.9605 12.384 19.97 12.3849 19.9821C12.3853 19.9882 12.3859 19.9975 12.3859 20.0089C12.3859 20.0148 12.3858 20.0221 12.3854 20.0305C12.385 20.0388 12.3842 20.0498 12.3825 20.0627C12.3809 20.0752 12.378 20.0931 12.3723 20.1142C12.3698 20.1231 12.3637 20.1422 12.36 20.1522C12.3554 20.164 12.344 20.1891 12.3371 20.2023C12.3283 20.2176 12.3068 20.2495 12.2939 20.2659C12.2778 20.2842 12.2395 20.3201 12.2172 20.3371C12.1909 20.3542 12.1331 20.3827 12.1017 20.3936C12.069 20.402 12.0039 20.4103 11.9718 20.4105C11.9426 20.4084 11.8886 20.3987 11.864 20.3917C11.8431 20.3844 11.8059 20.3679 11.7895 20.3591C11.7759 20.3511 11.7516 20.3349 11.741 20.3269C11.7321 20.3198 11.7162 20.306 11.7091 20.2994C11.6925 20.2835 11.6802 20.269 11.6721 20.2587C11.6637 20.2481 11.6572 20.2387 11.6524 20.2315C11.6432 20.2176 11.6367 20.2059 11.6329 20.1988C11.6289 20.1912 11.6257 20.1847 11.6236 20.1801C11.6194 20.1712 11.6164 20.164 11.6148 20.1599C11.6115 20.1518 11.6093 20.1453 11.6083 20.1426C11.6062 20.1366 11.6048 20.132 11.6043 20.1304C11.6031 20.1266 11.6023 20.1238 11.602 20.1226C11.6016 20.1211 11.601 20.119 11.6003 20.1163C11.5999 20.1149 11.5993 20.1124 11.5985 20.1092C11.5981 20.1076 11.5975 20.1051 11.5969 20.1021C11.5963 20.0994 11.5952 20.0943 11.594 20.0877C11.5934 20.0844 11.5925 20.0793 11.5916 20.0732C11.5909 20.0677 11.5895 20.0572 11.5886 20.044C11.5881 20.0372 11.5876 20.0271 11.5876 20.0149C11.5877 20.0087 11.5879 20.001 11.5884 19.9921C11.5889 19.9834 11.5899 19.9721 11.5918 19.959C11.5937 19.9463 11.5969 19.9288 11.6026 19.9083C11.6051 19.8999 11.611 19.882 11.6146 19.8725C11.6189 19.8618 11.6293 19.8391 11.6354 19.8272C11.643 19.8138 11.6611 19.7858 11.6717 19.7714C11.6847 19.7556 11.7149 19.7242 11.7324 19.7089C11.7527 19.6931 11.7979 19.6647 11.8228 19.6524C11.8495 19.6415 11.9048 19.6255 11.9332 19.6205C12.01 19.61 12.0758 19.6234 12.123 19.6404C12.1394 19.6468 12.1694 19.6605 12.1829 19.6677C12.1943 19.6743 12.215 19.6877 12.2243 19.6944C12.2464 19.7106 12.263 19.7263 12.2741 19.7377C12.2856 19.7495 12.2946 19.7601 12.301 19.7683C12.3077 19.7766 12.313 19.7841 12.3172 19.7901C12.3213 19.7962 12.3248 19.8016 12.3277 19.8062C12.3332 19.815 12.3374 19.8226 12.3402 19.828C12.3458 19.8384 12.3498 19.847 12.3519 19.8517C12.3543 19.8569 12.3561 19.8612 12.3573 19.8642C12.3597 19.8699 12.3614 19.8745 12.3623 19.8769C12.3633 19.8796 12.3641 19.8818 12.3646 19.8832C12.3656 19.886 12.3663 19.888 12.3665 19.8888L11.607 20.1402C11.6077 20.1421 11.6087 20.1451 11.6099 20.1485C11.6105 20.1503 11.6114 20.1528 11.6125 20.1557C11.6135 20.1583 11.6153 20.1631 11.6177 20.1691C11.619 20.1721 11.6208 20.1765 11.6232 20.1817C11.6253 20.1865 11.6293 20.1951 11.6349 20.2056C11.6378 20.2109 11.642 20.2185 11.6476 20.2274C11.6504 20.232 11.6539 20.2374 11.6581 20.2435C11.6622 20.2495 11.6676 20.257 11.6742 20.2653C11.6807 20.2735 11.6896 20.2842 11.7011 20.2959C11.7122 20.3074 11.7288 20.323 11.7509 20.3393C11.7603 20.3459 11.781 20.3593 11.7924 20.3659C11.8059 20.3732 11.8358 20.3869 11.8522 20.3932C11.8995 20.4102 11.9653 20.4237 12.042 20.4131C12.0705 20.4082 12.1258 20.3922 12.1525 20.3813C12.1774 20.369 12.2226 20.3405 12.2429 20.3248C12.2603 20.3095 12.2906 20.278 12.3035 20.2622C12.3142 20.2479 12.3323 20.2199 12.3398 20.2064C12.346 20.1945 12.3564 20.1718 12.3607 20.1611C12.3642 20.1516 12.3702 20.1337 12.3726 20.1253C12.3784 20.1049 12.3816 20.0873 12.3834 20.0746C12.3854 20.0615 12.3863 20.0502 12.3869 20.0415C12.3874 20.0327 12.3876 20.0249 12.3876 20.0187C12.3877 20.0065 12.3872 19.9964 12.3867 19.9896C12.3858 19.9763 12.3844 19.9658 12.3836 19.9602C12.3827 19.954 12.3819 19.949 12.3813 19.9455C12.38 19.9389 12.3789 19.9335 12.3783 19.9307C12.3776 19.9275 12.377 19.9248 12.3765 19.923C12.3756 19.9193 12.3749 19.9163 12.3744 19.9144C12.3733 19.9104 12.3724 19.907 12.3716 19.9042C12.3709 19.9016 12.3697 19.8976 12.3682 19.8928C12.3676 19.8908 12.366 19.8857 12.3638 19.8794C12.3628 19.8766 12.3605 19.87 12.3572 19.8617C12.3555 19.8576 12.3525 19.8503 12.3483 19.8414C12.3462 19.8368 12.343 19.8303 12.339 19.8227C12.3352 19.8156 12.3287 19.8038 12.3195 19.7899C12.3147 19.7827 12.3082 19.7733 12.2998 19.7627C12.2917 19.7525 12.2794 19.7379 12.2628 19.722C12.2557 19.7154 12.2398 19.7016 12.2309 19.6945C12.2202 19.6865 12.196 19.6703 12.1824 19.6623C12.1659 19.6535 12.1287 19.6371 12.1079 19.6298C12.0833 19.6227 12.0292 19.6131 12 19.611C11.968 19.6111 11.9028 19.6194 11.8702 19.6278C11.8388 19.6387 11.7809 19.6672 11.7547 19.6843C11.7324 19.7013 11.6941 19.7372 11.6779 19.7555C11.665 19.7719 11.6436 19.8038 11.6348 19.8192C11.6279 19.8324 11.6165 19.8574 11.6118 19.8692C11.6081 19.8793 11.602 19.8983 11.5995 19.9072C11.5939 19.9283 11.5909 19.9463 11.5893 19.9587C11.5876 19.9716 11.5868 19.9826 11.5864 19.9909C11.586 19.9994 11.5859 20.0067 11.5859 20.0126C11.586 20.0239 11.5865 20.0333 11.587 20.0395C11.5878 20.0516 11.5891 20.0611 11.5897 20.066C11.5905 20.0715 11.5913 20.076 11.5918 20.079C11.5923 20.0822 11.5928 20.0849 11.5932 20.0869C11.594 20.0908 11.5947 20.094 11.5951 20.096C11.596 20.1 11.5967 20.1033 11.5972 20.1052C11.5977 20.1073 11.5982 20.1093 11.5986 20.1109L12.375 19.9181ZM12.3548 19.8579C12.3563 19.8613 12.3595 19.869 12.3631 19.8797C12.3659 19.8879 12.3735 19.9112 12.3784 19.9427C12.3809 19.9586 12.3843 19.9869 12.3825 20.0223C12.381 20.0541 12.3741 20.1203 12.3346 20.1929C12.3136 20.2315 12.2826 20.2731 12.2384 20.3097C12.1935 20.3468 12.1426 20.3724 12.0903 20.3869C11.9898 20.4147 11.9065 20.3962 11.8653 20.3833C11.8215 20.3697 11.7897 20.3515 11.773 20.341C11.7546 20.3295 11.7406 20.3186 11.7316 20.3112C11.7141 20.2967 11.7017 20.2839 11.6955 20.2772C11.6825 20.2633 11.6736 20.2514 11.6681 20.2438C11.6628 20.2364 11.6539 20.2233 11.6442 20.2051C11.6398 20.1966 11.6304 20.1782 11.6216 20.1532C11.6172 20.1406 11.6105 20.1196 11.6057 20.0929C11.6014 20.0693 11.5946 20.0202 11.6044 19.9589C11.6149 19.8943 11.649 19.791 11.749 19.7109C11.8484 19.6312 11.9557 19.6204 12.0193 19.6237C12.08 19.6269 12.1257 19.6433 12.1473 19.652C12.1719 19.6619 12.1905 19.6724 12.2015 19.6789C12.2231 19.6918 12.2382 19.7038 12.2439 19.7084C12.2511 19.7142 12.256 19.7187 12.2581 19.7206L11.7155 20.3085C11.722 20.3145 11.7307 20.3222 11.741 20.3306C11.7499 20.3378 11.7675 20.3515 11.7911 20.3656C11.8031 20.3728 11.8226 20.3836 11.8479 20.3938C11.8703 20.4029 11.9165 20.4194 11.9778 20.4226C12.0419 20.426 12.1495 20.415 12.2492 20.3352C12.3494 20.2549 12.3838 20.1512 12.3943 20.0861C12.4042 20.0244 12.3973 19.9748 12.3929 19.9506C12.388 19.9233 12.3811 19.9016 12.3764 19.8881C12.3671 19.8616 12.3569 19.8413 12.3513 19.8308C12.3395 19.8085 12.3275 19.7905 12.3189 19.7785C12.3101 19.7662 12.2974 19.7497 12.2812 19.7323C12.2734 19.7239 12.2594 19.7095 12.2405 19.6939C12.2308 19.6859 12.2162 19.6746 12.1972 19.6627C12.1798 19.6518 12.1475 19.6333 12.1033 19.6196C12.0616 19.6066 11.9778 19.588 11.877 19.6159C11.8244 19.6304 11.7734 19.6561 11.7284 19.6933C11.684 19.73 11.6529 19.7718 11.6318 19.8106C11.5921 19.8836 11.5851 19.9503 11.5835 19.9828C11.5817 20.0189 11.5852 20.048 11.5878 20.0649C11.593 20.0985 11.6014 20.1245 11.6054 20.1362C11.6102 20.1505 11.615 20.1625 11.6187 20.1712L12.3548 19.8579ZM12.2706 19.7326C12.2719 19.734 12.2757 19.7378 12.2807 19.7435C12.2845 19.7477 12.296 19.7608 12.309 19.7797C12.3154 19.7891 12.3271 19.8069 12.3387 19.831C12.3447 19.8435 12.3525 19.8612 12.3595 19.8832C12.3662 19.9045 12.3746 19.9369 12.3773 19.9773C12.38 20.0177 12.3777 20.0759 12.3541 20.1407C12.329 20.2094 12.2848 20.2721 12.2238 20.3195C12.1658 20.3646 12.1064 20.3853 12.0621 20.3947C12.0185 20.4041 11.9816 20.4043 11.9571 20.403C11.9101 20.4004 11.8745 20.39 11.8591 20.3851C11.8406 20.3793 11.8262 20.3732 11.8176 20.3694C11.8004 20.3617 11.7878 20.3545 11.782 20.3511C11.7694 20.3438 11.7604 20.3376 11.7554 20.3339C11.7503 20.3302 11.7415 20.3236 11.7306 20.3139C11.7255 20.3094 11.7147 20.2995 11.7019 20.2854C11.6955 20.2783 11.6852 20.2664 11.6737 20.2503C11.6679 20.2421 11.6604 20.231 11.6526 20.2174C11.645 20.2042 11.635 20.185 11.6258 20.1607C11.6169 20.1373 11.6057 20.1011 11.6015 20.0554C11.5972 20.0089 11.5997 19.9449 11.6267 19.8751C11.6549 19.8021 11.7026 19.742 11.7603 19.699C11.8145 19.6584 11.8684 19.6395 11.9067 19.6304C11.945 19.6213 11.9775 19.6195 11.9993 19.6195C12.0219 19.6195 12.0406 19.6215 12.0541 19.6233C12.08 19.627 12.1002 19.6325 12.1109 19.6356C12.1326 19.642 12.1483 19.6488 12.1534 19.6511C12.1603 19.6541 12.165 19.6564 12.1666 19.6572L11.8069 20.3718C11.8137 20.3752 11.8228 20.3796 11.8332 20.3842C11.8418 20.3879 11.8602 20.3957 11.8839 20.4027C11.8956 20.4062 11.9166 20.4119 11.9433 20.4156C11.957 20.4176 11.9761 20.4195 11.9989 20.4195C12.021 20.4195 12.0537 20.4178 12.0923 20.4086C12.1307 20.3994 12.1847 20.3805 12.2391 20.3398C12.2969 20.2966 12.3447 20.2365 12.3729 20.1633C12.3999 20.0935 12.4024 20.0292 12.3982 19.9826C12.394 19.9368 12.3827 19.9004 12.3737 19.8767C12.3644 19.8523 12.3543 19.8329 12.3466 19.8194C12.3386 19.8056 12.331 19.7942 12.325 19.7857C12.3132 19.7692 12.3024 19.7566 12.2954 19.7489C12.2815 19.7336 12.2692 19.7223 12.2624 19.7162C12.248 19.7034 12.2346 19.6932 12.2249 19.6862C12.2152 19.6791 12.2014 19.6696 12.1848 19.66C12.1769 19.6554 12.1624 19.6472 12.1437 19.6389C12.1343 19.6347 12.1192 19.6283 12.1001 19.6223C12.0841 19.6172 12.0479 19.6067 12.0006 19.6041C11.9758 19.6028 11.9387 19.603 11.8949 19.6124C11.8505 19.6219 11.791 19.6426 11.7328 19.6879C11.6718 19.7353 11.6274 19.7981 11.6024 19.8669C11.5787 19.9319 11.5764 19.9902 11.5791 20.0308C11.5818 20.0714 11.5902 20.104 11.597 20.1256C11.6041 20.1478 11.612 20.1658 11.6181 20.1786C11.6301 20.2033 11.6422 20.2219 11.6492 20.2321C11.6634 20.2528 11.6766 20.2681 11.6829 20.2751C11.6905 20.2837 11.6976 20.2909 11.703 20.2964L12.2706 19.7326ZM12.2097 19.6824C12.2121 19.684 12.2162 19.6868 12.2212 19.6905C12.2254 19.6935 12.2352 19.7008 12.2471 19.7111C12.253 19.7162 12.2631 19.7253 12.2747 19.7376C12.2807 19.7439 12.2886 19.7527 12.2974 19.7637C12.3058 19.7742 12.3179 19.7905 12.3302 19.8118C12.3418 19.8318 12.36 19.8671 12.372 19.9146C12.3841 19.9624 12.3943 20.0409 12.3661 20.1313C12.352 20.1769 12.3296 20.22 12.2996 20.2584C12.27 20.2964 12.2366 20.3251 12.2044 20.3463C12.1427 20.3871 12.0841 20.4012 12.0505 20.4069C12.015 20.4129 11.9856 20.4128 11.9676 20.4121C11.9485 20.4113 11.9327 20.4092 11.9218 20.4075C11.9004 20.4041 11.8837 20.3996 11.8747 20.3971C11.8564 20.3918 11.8426 20.3864 11.8366 20.384C11.8232 20.3787 11.8129 20.3737 11.8069 20.3707C11.8006 20.3675 11.7915 20.3627 11.7809 20.3562C11.7757 20.3531 11.7663 20.3473 11.755 20.3391C11.7492 20.3349 11.7405 20.3284 11.7304 20.3198C11.7216 20.3124 11.7039 20.2968 11.6847 20.2742C11.6748 20.2626 11.6606 20.2446 11.6464 20.2208C11.6328 20.1982 11.6125 20.1595 11.6001 20.1073C11.5873 20.0531 11.5809 19.9742 11.6105 19.8869C11.625 19.8438 11.6465 19.8045 11.6732 19.7701C11.6995 19.7361 11.7286 19.7099 11.7562 19.69C11.8096 19.6518 11.8607 19.635 11.8919 19.6272C11.9246 19.619 11.9521 19.6165 11.9698 19.6156C12.0042 19.6139 12.0312 19.6172 12.0434 19.6188C12.0692 19.6224 12.0888 19.6278 12.0949 19.6295C12.1037 19.6319 12.1104 19.6341 12.1141 19.6353L11.8595 20.3937C11.8643 20.3953 11.8719 20.3978 11.8814 20.4004C11.8882 20.4023 11.9083 20.4078 11.9346 20.4114C11.9469 20.4131 11.9741 20.4164 12.0086 20.4147C12.0264 20.4138 12.0539 20.4113 12.0866 20.4031C12.1179 20.3953 12.169 20.3785 12.2224 20.3402C12.2501 20.3203 12.2792 20.2941 12.3055 20.2601C12.3322 20.2257 12.3537 20.1864 12.3683 20.1433C12.3978 20.0559 12.3914 19.9771 12.3786 19.9228C12.3662 19.8706 12.3459 19.8318 12.3323 19.8092C12.318 19.7853 12.3038 19.7673 12.2939 19.7557C12.2746 19.733 12.2568 19.7173 12.2479 19.7098C12.2377 19.7011 12.2288 19.6945 12.2229 19.6902C12.2112 19.6818 12.2014 19.6757 12.1958 19.6723C12.1843 19.6652 12.1741 19.6599 12.1666 19.6561C12.1596 19.6525 12.1481 19.647 12.1338 19.6413C12.1274 19.6387 12.1131 19.6332 12.0945 19.6279C12.0854 19.6252 12.0685 19.6208 12.0471 19.6173C12.036 19.6156 12.0202 19.6136 12.001 19.6128C11.983 19.612 11.9536 19.612 11.9181 19.6179C11.8844 19.6236 11.8258 19.6378 11.764 19.6785C11.7318 19.6997 11.6984 19.7285 11.6688 19.7665C11.6389 19.8048 11.6165 19.848 11.6023 19.8936C11.5741 19.984 11.5843 20.0625 11.5964 20.1104C11.6084 20.158 11.6266 20.1933 11.6382 20.2133C11.6506 20.2346 11.6628 20.251 11.6712 20.2615C11.68 20.2726 11.6879 20.2814 11.694 20.2878C11.7057 20.3002 11.716 20.3094 11.7221 20.3148C11.7343 20.3254 11.7447 20.3331 11.7496 20.3367C11.7554 20.3409 11.7604 20.3443 11.7638 20.3466L12.2097 19.6824ZM12.1221 19.6381C12.1243 19.6389 12.13 19.641 12.1377 19.6443C12.1435 19.6468 12.1607 19.6542 12.1818 19.6668C12.1923 19.6731 12.2113 19.6851 12.2329 19.7032C12.2441 19.7126 12.2589 19.7261 12.2747 19.744C12.2902 19.7614 12.311 19.788 12.3298 19.8239C12.3487 19.8602 12.3688 19.9125 12.3739 19.978C12.3792 20.0466 12.3667 20.117 12.3356 20.1817C12.3058 20.2438 12.2652 20.2874 12.2309 20.316C12.1971 20.3441 12.1648 20.3614 12.1419 20.3719C12.0982 20.3919 12.0608 20.3993 12.0437 20.4023C12.0236 20.4057 12.0071 20.4069 11.997 20.4074C11.977 20.4084 11.9615 20.4076 11.9541 20.4071C11.9384 20.406 11.9265 20.4042 11.9195 20.403C11.9125 20.4018 11.9006 20.3995 11.8852 20.3951C11.8781 20.3931 11.8629 20.3885 11.8441 20.3806C11.8346 20.3766 11.8191 20.3698 11.8009 20.3593C11.7854 20.3506 11.7514 20.33 11.716 20.2943C11.6974 20.2756 11.6722 20.2465 11.6499 20.2061C11.627 20.1648 11.6049 20.1072 11.6007 20.0363C11.5964 19.9629 11.6125 19.8933 11.6425 19.8334C11.6711 19.7765 11.7079 19.737 11.7371 19.7115C11.7663 19.6862 11.7939 19.6696 11.8135 19.6593C11.8337 19.6487 11.8515 19.6416 11.8646 19.6369C11.8901 19.6278 11.9113 19.6232 11.9229 19.621C11.9463 19.6165 11.9643 19.6154 11.9705 19.615C11.9787 19.6145 11.9845 19.6145 11.9868 19.6145V20.4145C11.9946 20.4145 12.005 20.4144 12.0168 20.4137C12.0267 20.4131 12.0475 20.4117 12.0729 20.4068C12.0855 20.4044 12.1075 20.3996 12.1336 20.3903C12.1471 20.3855 12.1651 20.3782 12.1855 20.3675C12.2054 20.3571 12.2332 20.3404 12.2624 20.3149C12.2918 20.2894 12.3287 20.2497 12.3574 20.1926C12.3875 20.1327 12.4036 20.0629 12.3993 19.9894C12.3951 19.9184 12.3729 19.8606 12.35 19.8191C12.3276 19.7786 12.3023 19.7494 12.2836 19.7305C12.2478 19.6946 12.2134 19.6737 12.1974 19.6646C12.1787 19.6539 12.1625 19.6467 12.1523 19.6424C12.1319 19.6339 12.1149 19.6287 12.1056 19.626C12.086 19.6204 12.0687 19.6169 12.0563 19.6148C12.0439 19.6126 12.0265 19.6101 12.0063 19.6088C11.9967 19.6082 11.9792 19.6073 11.9576 19.6084C11.9466 19.6089 11.9295 19.6102 11.9088 19.6137C11.8911 19.6167 11.8532 19.6243 11.809 19.6445C11.7859 19.655 11.7535 19.6725 11.7196 19.7007C11.6851 19.7294 11.6444 19.773 11.6145 19.8353C11.5834 19.9001 11.5709 19.9707 11.5762 20.0395C11.5813 20.1051 11.6015 20.1576 11.6205 20.194C11.6393 20.2301 11.6603 20.2568 11.6759 20.2744C11.6919 20.2925 11.7069 20.3062 11.7183 20.3158C11.7405 20.3344 11.7602 20.3468 11.7715 20.3536C11.7943 20.3672 11.8139 20.3759 11.8231 20.3798C11.8341 20.3845 11.844 20.3882 11.8514 20.3909L12.1221 19.6381ZM11.9868 19.6145C11.9888 19.6145 11.9939 19.6145 12.0009 19.6149C12.006 19.6151 12.022 19.6159 12.0428 19.6193C12.0529 19.6209 12.0731 19.6246 12.0978 19.6324C12.1106 19.6364 12.1292 19.6429 12.1507 19.6532C12.171 19.663 12.2037 19.6808 12.2385 19.7107C12.2731 19.7405 12.3222 19.7934 12.3523 19.8744C12.3676 19.9155 12.3765 19.9602 12.3773 20.0068C12.378 20.0532 12.3707 20.0959 12.3589 20.1335C12.336 20.2063 12.2976 20.2561 12.272 20.284C12.2456 20.3127 12.2202 20.3318 12.204 20.343C12.1868 20.3548 12.1716 20.3632 12.1609 20.3687C12.1499 20.3744 12.1402 20.3787 12.1328 20.3818C12.1184 20.3879 12.1065 20.3919 12.0992 20.3942C12.0847 20.3988 12.0731 20.4014 12.0676 20.4027C12.0559 20.4053 12.0467 20.4067 12.0412 20.4074C12.0358 20.4082 12.0262 20.4093 12.0136 20.41C12.0079 20.4103 11.995 20.4109 11.9784 20.4102C11.9701 20.4099 11.9558 20.409 11.9381 20.4065C11.9291 20.4051 11.9167 20.403 11.9023 20.3996C11.8884 20.3962 11.8678 20.3905 11.8437 20.3806C11.821 20.3712 11.7834 20.3534 11.7436 20.321C11.7029 20.2879 11.6486 20.23 11.618 20.1411C11.6028 20.0968 11.5955 20.0505 11.5963 20.0042C11.5971 19.9585 11.6056 19.9177 11.6172 19.8833C11.6395 19.8171 11.674 19.7717 11.6959 19.7469C11.7189 19.7207 11.7408 19.7027 11.755 19.692C11.77 19.6807 11.7832 19.6724 11.7927 19.6669C11.8111 19.656 11.8265 19.649 11.8347 19.6454C11.8514 19.6381 11.8646 19.6338 11.869 19.6323C11.8749 19.6304 11.8792 19.6292 11.8809 19.6288L12.0927 20.4002C12.0984 20.3987 12.1061 20.3965 12.1146 20.3937C12.1217 20.3914 12.1369 20.3864 12.155 20.3785C12.1639 20.3746 12.1799 20.3672 12.1987 20.3562C12.2084 20.3505 12.2218 20.3421 12.2369 20.3306C12.2512 20.3198 12.2733 20.3017 12.2964 20.2755C12.3183 20.2505 12.3529 20.2051 12.3753 20.1388C12.3869 20.1043 12.3954 20.0635 12.3962 20.0177C12.397 19.9714 12.3897 19.925 12.3744 19.8807C12.3438 19.7918 12.2894 19.7338 12.2487 19.7006C12.2089 19.6682 12.1711 19.6503 12.1483 19.6409C12.1241 19.6309 12.1033 19.6251 12.0893 19.6217C12.0746 19.6182 12.0621 19.6161 12.0528 19.6147C12.0347 19.6121 12.0199 19.6112 12.011 19.6109C11.9932 19.6101 11.9789 19.6107 11.9714 19.6111C11.9555 19.612 11.9419 19.6136 11.9324 19.6149C11.9228 19.6162 11.9095 19.6183 11.8944 19.6216C11.8872 19.6232 11.8742 19.6263 11.8585 19.6312C11.8506 19.6337 11.8382 19.6379 11.8234 19.6441C11.8158 19.6473 11.8059 19.6517 11.7947 19.6575C11.7838 19.6631 11.7685 19.6716 11.7512 19.6835C11.7348 19.6947 11.7093 19.714 11.6828 19.7428C11.6571 19.7708 11.6187 19.8206 11.5958 19.8935C11.5839 19.9311 11.5766 19.9739 11.5774 20.0203C11.5782 20.067 11.5871 20.1118 11.6024 20.1529C11.6325 20.234 11.6816 20.2869 11.7164 20.3168C11.7512 20.3468 11.7841 20.3647 11.8045 20.3745C11.8262 20.3849 11.845 20.3915 11.8579 20.3955C11.8831 20.4035 11.9038 20.4072 11.9146 20.409C11.9368 20.4126 11.9549 20.4136 11.9626 20.414C11.9722 20.4144 11.9806 20.4145 11.9868 20.4145V19.6145ZM11.8594 19.6353L5.93003 21.6264L6.18469 22.3848L12.1141 20.3937L11.8594 19.6353ZM5.95191 21.6197C5.98552 21.6105 5.99861 21.6146 5.96685 21.6135C5.9424 21.6126 5.90704 21.6093 5.85886 21.603C5.75239 21.5891 5.65703 21.5713 5.52236 21.5514C5.41331 21.5353 5.26502 21.5155 5.14041 21.5249C5.08769 21.5288 4.96277 21.5416 4.85007 21.6243C4.78369 21.6731 4.71955 21.7479 4.68709 21.8509C4.65573 21.9504 4.66484 22.0417 4.68254 22.1083L5.4557 21.9028C5.46633 21.9428 5.47535 22.0112 5.45012 22.0913C5.42379 22.1749 5.37202 22.2336 5.3235 22.2692C5.24651 22.3257 5.17928 22.3242 5.20026 22.3226C5.22305 22.3209 5.28627 22.3252 5.40528 22.3428C5.49869 22.3566 5.64796 22.3823 5.75517 22.3963C5.81384 22.404 5.87758 22.4108 5.93856 22.413C5.99223 22.4149 6.07706 22.4149 6.16281 22.3914L5.95191 21.6197ZM4.68291 22.1097C4.76353 22.4088 5.04971 22.4782 5.14626 22.4957C5.2781 22.5197 5.42236 22.5147 5.54083 22.5041C5.78511 22.4822 6.04213 22.4239 6.16143 22.3918L5.95329 21.6193C5.86109 21.6442 5.65229 21.6909 5.46948 21.7073C5.3744 21.7158 5.3148 21.7133 5.28908 21.7086C5.27629 21.7063 5.2966 21.7076 5.32971 21.7281C5.36924 21.7526 5.43008 21.8078 5.45534 21.9015L4.68291 22.1097ZM6.15505 22.3935L10.108 21.3979L9.91262 20.6222L5.95967 21.6177L6.15505 22.3935ZM9.72643 20.7282L0.832297 29.688L1.40006 30.2516L10.2942 21.2918L9.72643 20.7282ZM0.832367 29.6879C0.70919 29.812 0.660929 29.9803 0.638296 30.0837C0.611481 30.2062 0.6 30.3407 0.6 30.4676C0.6 30.5945 0.611481 30.729 0.638296 30.8515C0.660929 30.9549 0.70919 31.1232 0.832367 31.2472L1.39999 30.6835C1.42885 30.7125 1.43629 30.7343 1.43307 30.7268C1.43109 30.7221 1.42572 30.7075 1.41979 30.6804C1.40788 30.626 1.4 30.5506 1.4 30.4676C1.4 30.3846 1.40788 30.3092 1.41979 30.2548C1.42572 30.2277 1.43109 30.213 1.43307 30.2084C1.43629 30.2009 1.42885 30.2226 1.39999 30.2517L0.832367 29.6879ZM0.832367 31.2472C0.830237 31.2451 0.824239 31.2389 0.816381 31.2291C0.809387 31.2205 0.794822 31.2015 0.780217 31.1737C0.767842 31.1501 0.73986 31.0913 0.736793 31.0092C0.735138 30.9649 0.740689 30.9103 0.763082 30.8523C0.786006 30.793 0.82225 30.7417 0.866996 30.7013C0.95186 30.6247 1.04344 30.6073 1.08527 30.6025C1.13144 30.5972 1.16796 30.6015 1.18712 30.6046C1.22629 30.6108 1.25479 30.6219 1.27059 30.629C1.28731 30.6364 1.31129 30.6488 1.33808 30.6695C1.3515 30.6798 1.37327 30.6982 1.396 30.7256C1.41629 30.75 1.45573 30.8035 1.47483 30.8841C1.48501 30.9271 1.48966 30.9793 1.48056 31.0367C1.47131 31.0951 1.44942 31.1486 1.41872 31.1945C1.35988 31.2824 1.28333 31.3218 1.24494 31.3378C1.20394 31.3549 1.16994 31.3605 1.15381 31.3627C1.13565 31.3651 1.12224 31.3653 1.11618 31.3653V30.5653C1.09783 30.5653 1.07427 30.5662 1.04784 30.5697C1.02345 30.573 0.983078 30.5802 0.937319 30.5993C0.894181 30.6173 0.814495 30.659 0.753896 30.7495C0.722317 30.7967 0.699897 30.8517 0.690421 30.9115C0.681091 30.9703 0.685827 31.024 0.696364 31.0685C0.716182 31.1522 0.75746 31.2088 0.78043 31.2365C0.805853 31.2671 0.831157 31.2888 0.848723 31.3023C0.88378 31.3294 0.918416 31.3479 0.946127 31.3602C0.972912 31.3721 1.01272 31.3869 1.06147 31.3946C1.08541 31.3985 1.12629 31.403 1.17613 31.3973C1.22161 31.3921 1.31617 31.3736 1.40306 31.2952C1.44882 31.2538 1.48584 31.2014 1.50927 31.1408C1.53217 31.0816 1.53796 31.0254 1.53624 30.9794C1.53304 30.8938 1.50372 30.8307 1.48855 30.8018C1.45753 30.7427 1.41786 30.7015 1.39999 30.6835L0.832367 31.2472ZM1.11618 31.3653C1.11404 31.3653 1.12462 31.3656 1.16 31.3678C1.1908 31.3697 1.22948 31.3723 1.27629 31.3754C1.36812 31.3815 1.48549 31.3891 1.60304 31.3942C1.71858 31.3992 1.84385 31.4023 1.94939 31.3979C2.00096 31.3958 2.06002 31.3914 2.11576 31.3814C2.14344 31.3764 2.18077 31.3682 2.22057 31.3535C2.25337 31.3414 2.32737 31.311 2.3937 31.2416L1.81513 30.6891C1.87215 30.6294 1.93107 30.6076 1.94374 30.6029C1.9545 30.5989 1.96259 30.5967 1.96679 30.5956C1.97118 30.5945 1.97365 30.5941 1.97369 30.5941C1.97381 30.5941 1.97252 30.5943 1.96957 30.5947C1.96666 30.5951 1.96267 30.5955 1.95747 30.596C1.94691 30.597 1.93325 30.5979 1.91627 30.5986C1.84535 30.6015 1.74721 30.5997 1.63766 30.595C1.53011 30.5903 1.42073 30.5833 1.3294 30.5772C1.25064 30.5719 1.15904 30.5653 1.11618 30.5653V31.3653ZM2.38829 31.2471L11.2824 22.2874L10.7147 21.7238L1.82053 30.6835L2.38829 31.2471ZM10.6103 21.9092L9.62208 25.8913L10.3985 26.084L11.3868 22.1019L10.6103 21.9092ZM9.62409 25.8836C9.59181 26.0034 9.53408 26.262 9.51243 26.5077C9.50192 26.627 9.49709 26.7716 9.52059 26.9034C9.53732 26.9972 9.60463 27.287 9.90485 27.3691L10.1158 26.5974C10.2114 26.6235 10.2663 26.6861 10.2898 26.7248C10.3096 26.7573 10.3106 26.7767 10.3082 26.7629C10.3033 26.7355 10.3009 26.6741 10.3093 26.5779C10.3257 26.3926 10.3722 26.182 10.3965 26.0918L9.62409 25.8836ZM9.90439 27.3689C9.90273 27.3685 9.89846 27.3673 9.89255 27.3654C9.8881 27.364 9.87494 27.3597 9.85824 27.3524C9.84999 27.3487 9.83459 27.3417 9.81622 27.3309C9.80677 27.3253 9.79354 27.317 9.77858 27.3057C9.76437 27.295 9.74243 27.277 9.71944 27.2509C9.69755 27.226 9.66301 27.1806 9.6407 27.1145C9.6291 27.08 9.62059 27.0392 9.61982 26.9935C9.61904 26.9473 9.62629 26.9009 9.64155 26.8566C9.67213 26.7678 9.72647 26.7098 9.76712 26.6767C9.80689 26.6444 9.8445 26.6265 9.86718 26.6172C9.89128 26.6072 9.91196 26.6015 9.92581 26.5982C9.94025 26.5947 9.95258 26.5926 9.96165 26.5913C9.97932 26.5887 9.99361 26.5879 10.0019 26.5875C10.0185 26.5869 10.0314 26.5874 10.0372 26.5877C10.0498 26.5884 10.0593 26.5896 10.0647 26.5903C10.0702 26.5911 10.0794 26.5925 10.0912 26.5951C10.0967 26.5963 10.1082 26.599 10.1227 26.6036C10.13 26.6059 10.142 26.6099 10.1563 26.6159C10.1637 26.619 10.1734 26.6233 10.1845 26.629C10.1952 26.6345 10.2103 26.6429 10.2275 26.6547C10.2438 26.6659 10.2692 26.6851 10.2955 26.7138C10.3211 26.7416 10.3595 26.7914 10.3824 26.8642C10.3942 26.9018 10.4016 26.9446 10.4008 26.991C10.4 27.0376 10.3911 27.0823 10.3758 27.1234C10.3458 27.2044 10.2967 27.2572 10.262 27.2871C10.2273 27.317 10.1945 27.3348 10.1742 27.3445C10.1527 27.3548 10.1341 27.3614 10.1214 27.3654C10.0966 27.3731 10.0764 27.3768 10.0663 27.3784C10.0455 27.3818 10.0295 27.3826 10.0244 27.3829C10.0174 27.3832 10.0124 27.3832 10.0103 27.3832V26.5832C10.0042 26.5832 9.99576 26.5833 9.9861 26.5838C9.97838 26.5842 9.96036 26.5852 9.93817 26.5888C9.92737 26.5905 9.90662 26.5943 9.88143 26.6022C9.86849 26.6063 9.84972 26.6129 9.82807 26.6233C9.80761 26.6331 9.77472 26.6509 9.73991 26.6809C9.70514 26.7109 9.65599 26.7638 9.62589 26.8448C9.61061 26.886 9.6017 26.9307 9.6009 26.9774C9.60012 27.0238 9.60745 27.0666 9.61929 27.1043C9.64222 27.1772 9.68066 27.227 9.70634 27.2549C9.73279 27.2837 9.75829 27.303 9.7747 27.3143C9.792 27.3261 9.80729 27.3346 9.81818 27.3402C9.82943 27.346 9.83929 27.3504 9.84689 27.3536C9.8617 27.3598 9.87415 27.364 9.88206 27.3665C9.89777 27.3715 9.91077 27.3745 9.91793 27.3761C9.93303 27.3795 9.94629 27.3816 9.9559 27.3829C9.96539 27.3842 9.97904 27.3858 9.99497 27.3866C10.0024 27.387 10.0167 27.3876 10.0345 27.3869C10.0434 27.3865 10.0582 27.3856 10.0763 27.383C10.0856 27.3817 10.0982 27.3795 10.1128 27.376C10.1268 27.3726 10.1476 27.3669 10.1719 27.3569C10.1947 27.3475 10.2324 27.3296 10.2722 27.2971C10.313 27.264 10.3674 27.206 10.398 27.117C10.4132 27.0727 10.4205 27.0263 10.4197 26.98C10.4189 26.9343 10.4104 26.8934 10.3988 26.859C10.3765 26.7927 10.3419 26.7472 10.3199 26.7222C10.2968 26.696 10.2748 26.6779 10.2604 26.6671C10.2453 26.6557 10.2319 26.6473 10.2222 26.6416C10.2034 26.6305 10.1875 26.6232 10.1785 26.6193C10.1604 26.6113 10.1452 26.6063 10.1381 26.604C10.1296 26.6013 10.122 26.5991 10.1162 26.5975L9.90439 27.3689ZM10.0103 27.3832C10.2377 27.3832 10.3682 27.2282 10.4201 27.1178C10.4638 27.0248 10.4731 26.9304 10.4762 26.8757C10.4831 26.7566 10.469 26.6165 10.4555 26.5042C10.4387 26.3637 10.4257 26.2845 10.4133 26.1733C10.408 26.1263 10.4051 26.0917 10.4043 26.0677C10.4032 26.0348 10.4071 26.0501 10.3981 26.0856L9.62248 25.8898C9.60233 25.9695 9.60324 26.0491 9.60479 26.0948C9.60665 26.1495 9.61212 26.2079 9.61825 26.2625C9.62858 26.3546 9.65084 26.5132 9.66118 26.5994C9.67491 26.7139 9.6799 26.7895 9.67758 26.8294C9.67614 26.8542 9.6737 26.8252 9.69603 26.7776C9.72656 26.7126 9.82613 26.5832 10.0103 26.5832V27.3832ZM10.3821 26.1353L12.3585 21.1577L11.615 20.8624L9.63854 25.8401L10.3821 26.1353ZM12.3729 21.1146C12.3835 21.0753 12.3859 21.0403 12.386 21.0402C12.3869 21.0298 12.3874 21.0203 12.3878 21.0135C12.3885 20.9994 12.3889 20.9834 12.3893 20.9677C12.3899 20.9356 12.3903 20.8938 12.3905 20.847C12.391 20.7528 12.3907 20.631 12.3901 20.5104C12.3896 20.3895 12.3887 20.2688 12.388 20.1763C12.3877 20.1301 12.3874 20.0908 12.3871 20.0622C12.387 20.0479 12.3869 20.0363 12.3869 20.0278C12.3868 20.0236 12.3868 20.0202 12.3868 20.0177C12.3868 20.0149 12.3868 20.0141 12.3868 20.0145H11.5868C11.5868 20.0313 11.589 20.2788 11.5901 20.5141C11.5907 20.6342 11.591 20.753 11.5906 20.8434C11.5903 20.8889 11.59 20.9254 11.5894 20.9506C11.5892 20.9636 11.5889 20.971 11.5887 20.9741C11.5886 20.9759 11.5887 20.9735 11.5892 20.9686C11.5894 20.9662 11.5899 20.9605 11.591 20.953C11.5916 20.9483 11.5942 20.9294 11.6007 20.9055L12.3729 21.1146ZM12.386 20.0393C12.3859 20.0418 12.3854 20.048 12.3844 20.0565C12.3835 20.0633 12.3811 20.0812 12.3751 20.1041C12.3721 20.1157 12.3664 20.1352 12.3565 20.1583C12.348 20.1783 12.328 20.2209 12.2889 20.2652C12.249 20.3104 12.1643 20.3838 12.0315 20.3978C11.8958 20.4121 11.7946 20.3555 11.742 20.3139C11.6922 20.2745 11.6639 20.2328 11.6516 20.2131C11.6374 20.1904 11.6283 20.1707 11.6232 20.1588C11.6131 20.1352 11.6077 20.1159 11.6054 20.1072C11.6004 20.0881 11.5981 20.0732 11.5969 20.0648C11.5958 20.056 11.5943 20.0421 11.5941 20.0242C11.594 20.0157 11.5942 19.9989 11.5966 19.9776C11.5979 19.9668 11.6002 19.9502 11.6051 19.9303C11.6094 19.9124 11.6188 19.8788 11.639 19.8402C11.6574 19.8049 11.7019 19.7324 11.7923 19.68C11.8401 19.6522 11.8962 19.633 11.9576 19.6276C12.0181 19.6222 12.0724 19.6313 12.1168 19.6458C12.16 19.6599 12.1938 19.6791 12.2179 19.6955C12.2421 19.7121 12.2606 19.7287 12.2738 19.7418C12.2993 19.7671 12.3159 19.7906 12.3247 19.8038C12.3421 19.8301 12.352 19.8522 12.3554 19.8598C12.3598 19.8699 12.3626 19.8775 12.3638 19.8808L11.6098 20.1482C11.6128 20.1568 11.6173 20.1686 11.6231 20.182C11.6279 20.1929 11.6391 20.2174 11.6577 20.2454C11.667 20.2595 11.6841 20.2836 11.71 20.3093C11.7235 20.3227 11.7422 20.3395 11.7666 20.3561C11.7909 20.3727 11.8249 20.392 11.8684 20.4062C11.9129 20.4208 11.9674 20.4298 12.0281 20.4245C12.0896 20.419 12.1459 20.3998 12.1939 20.3719C12.2845 20.3193 12.3293 20.2465 12.348 20.2108C12.3684 20.1717 12.378 20.1376 12.3825 20.1189C12.3875 20.0983 12.39 20.081 12.3913 20.0693C12.394 20.0462 12.3942 20.0273 12.3941 20.0164C12.3939 19.9937 12.3919 19.9741 12.39 19.9598C12.3882 19.9457 12.3848 19.9253 12.3786 19.9018C12.3757 19.8909 12.3697 19.8697 12.359 19.8446C12.3536 19.8319 12.3442 19.8117 12.3296 19.7884C12.317 19.7682 12.2883 19.7261 12.2383 19.6865C12.1854 19.6446 12.0838 19.5879 11.9478 19.6022C11.8147 19.6162 11.7297 19.6899 11.6894 19.7354C11.65 19.7801 11.6297 19.8232 11.6209 19.8439C11.6107 19.8678 11.6047 19.8881 11.6014 19.9008C11.5948 19.926 11.5918 19.9469 11.5905 19.9577C11.5889 19.9702 11.5881 19.9812 11.5875 19.9897L12.386 20.0393Z" fill="white" mask="url(#path-4-outside-1_216:166)"/>
</svg>
