<svg width="50" height="49" viewBox="0 0 50 49" fill="none" xmlns="http://www.w3.org/2000/svg">
<path d="M11.246 49C11.1533 49 11.0605 48.9794 10.973 48.9434C10.7257 48.8355 10.566 48.5938 10.566 48.3213V39.1685H0.680014C0.303946 39.1685 0 38.8651 0 38.4898V5.67874C0 5.30338 0.303946 5 0.680014 5H43.32C43.696 5 44 5.30338 44 5.67874V38.4898C44 38.8651 43.696 39.1685 43.32 39.1685H22.2653L11.7096 48.82C11.5808 48.9383 11.416 49 11.246 49ZM1.36003 37.811H11.2511C11.6272 37.811 11.9312 38.1144 11.9312 38.4898V46.7838L21.5441 37.991C21.6677 37.8779 21.8326 37.811 22.0026 37.811H42.6451V6.35748H1.36003V37.811Z" fill="#0C8D5D"/>
<path d="M49.32 36H43.339C42.9629 36 42.6589 35.6906 42.6589 35.3079C42.6589 34.9251 42.9629 34.6158 43.339 34.6158H48.64V1.38421H7.36003V5.4215C7.36003 5.80425 7.05608 6.1136 6.68001 6.1136C6.30395 6.1136 6 5.80425 6 5.4215V0.692106C6 0.30935 6.30395 0 6.68001 0H49.32C49.6961 0 50 0.30935 50 0.692106V35.3079C50 35.6854 49.6961 36 49.32 36Z" fill="#0C8D5D"/>
<path d="M38.3432 46C38.1839 46 38.0247 45.9358 37.9003 45.8127L31.2126 39.2242C30.9439 38.962 30.929 38.5124 31.1728 38.2287C31.4167 37.9397 31.8346 37.9237 32.0984 38.1859L37.6864 43.6932V38.7104C37.6864 38.3197 37.9799 38.0039 38.3432 38.0039C38.7064 38.0039 39 38.3197 39 38.7104V45.2989C39 45.5772 38.8457 45.8341 38.6069 45.9465C38.5223 45.9786 38.4327 46 38.3432 46Z" fill="#0C8D5D"/>
<path d="M37.3143 15H6.68571C6.30649 15 6 14.7765 6 14.5C6 14.2235 6.30649 14 6.68571 14H37.3143C37.6935 14 38 14.2235 38 14.5C38 14.7765 37.6935 15 37.3143 15Z" fill="#0C8D5D"/>
<path d="M37.3143 21H6.68571C6.30649 21 6 20.7765 6 20.5C6 20.2235 6.30649 20 6.68571 20H37.3143C37.6935 20 38 20.2235 38 20.5C38 20.7765 37.6935 21 37.3143 21Z" fill="#0C8D5D"/>
<path d="M19.2947 27H6.70534C6.31527 27 6 26.7765 6 26.5C6 26.2235 6.31527 26 6.70534 26H19.2947C19.6847 26 20 26.2235 20 26.5C20 26.7765 19.6847 27 19.2947 27Z" fill="#0C8D5D"/>
</svg>
