<svg width="30" height="34" viewBox="0 0 30 34" fill="none" xmlns="http://www.w3.org/2000/svg">
<path d="M16 0.0307595C15.8595 0.022905 16.1335 -0.0343411 16 0.0307595C15.7324 0.161203 15.0511 0.905056 15 1.02985C14.8978 1.27945 15 1.02985 15 1.02985C15 1.0672 14.9942 0.992947 15 1.02985C15.3937 3.52758 15.883 5.86261 15 8.02352C14.1782 10.0348 12.635 12.0461 10 13.019C9.21455 11.7056 8 9.75527 8 9.02262C8 8.78974 8.14654 8.1664 8 8.02352C7.85346 7.88064 8.10925 8.05903 8 8.02352C7.78151 7.95251 7 8.02352 7 8.02352C6.86942 8.02377 7.11324 7.96004 7 8.02352C3.17711 10.1567 0 15.2159 0 20.0127C0 23.9018 1.43737 27.357 4 30.0036C6.56264 32.6502 10.2447 34 15 34C23.8396 34 30 27.5539 30 20.0127C30 10.0349 22.383 3.09659 16 0.0307595C16.1405 0.0386139 15.9075 -0.0143634 16 0.0307595ZM17 1.02985C17 1.02985 16.9998 1.02971 17 1.02985C16.9939 0.989971 17.0063 1.06966 17 1.02985ZM17 2.02895C22.769 5.08225 29 11.1934 29 20.0127C29 26.7811 23.0564 33.0009 15 33.0009C10.5948 33.0009 7.27224 31.3512 5 29.0045C2.72776 26.6578 2 23.5764 2 20.0127C2 16.1654 3.99723 12.0484 7 10.0217C7.13108 11.3217 7.94642 12.6155 9 14.0181C9.02226 14.0475 8.9735 13.9923 9 14.0181C9.09731 14.1138 8.86585 14.9851 9 15.0172C9.13415 15.0492 9.86843 15.0582 10 15.0172C13.3946 13.9652 14.9746 11.5321 16 9.02262C16.8824 6.86303 17.2432 4.36179 17 2.02895Z" fill="white"/>
</svg>
