<svg width="51" height="51" viewBox="0 0 51 51" fill="none" xmlns="http://www.w3.org/2000/svg">
<path d="M19.4924 51H15.5076C14.7516 51 14.1307 50.3845 14.1307 49.6233V47.9065C14.1307 47.2533 13.7257 46.681 13.1263 46.4759C12.5324 46.2761 11.9438 46.0278 11.3823 45.747C10.8369 45.4717 10.1728 45.5851 9.72462 46.0332L8.47192 47.2857C7.95356 47.8039 7.04644 47.8039 6.52808 47.2857L3.7149 44.4729C3.18035 43.9384 3.18035 43.0639 3.7149 42.5294L4.9838 41.2607C5.42657 40.818 5.53996 40.1539 5.26998 39.6087C4.9892 39.0472 4.74622 38.4587 4.54644 37.8649C4.34665 37.271 3.7797 36.8715 3.13175 36.8715H1.37689C0.62095 36.8715 0 36.2561 0 35.4948V31.516C0 30.7601 0.615551 30.1393 1.37689 30.1393H3.16955C3.81749 30.1393 4.38445 29.7182 4.61123 29.0649C4.79482 28.5359 5.0162 28.0122 5.26458 27.5047C5.55616 26.9162 5.45896 26.2252 5.0216 25.7825L3.7203 24.4814C3.18575 23.9469 3.18575 23.0723 3.7203 22.5379L6.53888 19.7197C7.05724 19.2014 7.96436 19.2014 8.48272 19.7197L9.80022 21.037C10.243 21.4797 10.9179 21.5769 11.5173 21.28C12.0248 21.0316 12.5486 20.8157 13.0778 20.6321C13.7257 20.4108 14.1415 19.8547 14.1415 19.2122V17.3767C14.1415 16.6208 14.757 16 15.5184 16H19.5032C20.2592 16 20.8801 16.6154 20.8801 17.3767V19.2122C20.8801 19.8547 21.2959 20.4108 21.9438 20.6321C22.4784 20.8157 23.0022 21.0316 23.5043 21.28C24.1037 21.5715 24.7786 21.4797 25.2214 21.037L26.5389 19.7197C27.0572 19.2014 27.9644 19.2014 28.4827 19.7197L31.2959 22.5325C31.5551 22.7916 31.7009 23.1371 31.7009 23.5042C31.7009 23.8714 31.5551 24.2169 31.2959 24.476L29.9784 25.7825C29.541 26.2198 29.4438 26.9108 29.7354 27.5047C29.9838 28.0068 30.2052 28.5305 30.3888 29.0649C30.6156 29.7182 31.1825 30.1393 31.8305 30.1393H33.6231C34.3791 30.1393 35 30.7547 35 31.516V35.4948C35 36.2507 34.3844 36.8715 33.6231 36.8715H31.8575C31.2095 36.8715 30.6425 37.271 30.4428 37.8649C30.243 38.4587 30 39.0472 29.7192 39.6087C29.4492 40.1539 29.5626 40.818 30.0054 41.2607L31.2743 42.5294C31.5335 42.7885 31.6793 43.134 31.6793 43.5012C31.6793 43.8683 31.5335 44.2138 31.2743 44.4729L28.4611 47.2857C27.9428 47.8039 27.0356 47.8039 26.5173 47.2857L25.2646 46.0332C24.8218 45.5905 24.1577 45.4771 23.6069 45.747C23.0454 46.0278 22.4568 46.2761 21.8629 46.4759C21.2635 46.681 20.8585 47.2533 20.8585 47.9065V49.6233C20.8693 50.3845 20.2484 51 19.4924 51ZM10.7613 44.176C11.1933 44.176 11.6253 44.2732 12.0248 44.4783C12.527 44.7321 13.0562 44.9534 13.5853 45.1316C14.7624 45.5311 15.5562 46.6486 15.5562 47.9119V49.6287L19.487 49.5801L19.4384 47.9119C19.4384 46.6486 20.2322 45.5311 21.4093 45.1316C21.9438 44.9534 22.4676 44.7321 22.9698 44.4783C24.0659 43.9277 25.3942 44.149 26.2743 45.029L27.527 46.2815L30.27 43.4688L29.0011 42.2702C28.1264 41.3956 27.8996 40.073 28.4449 38.977C28.6987 38.4695 28.9147 37.9459 29.0929 37.4168C29.487 36.2399 30.594 35.4516 31.8575 35.4516H33.5691V31.5214L31.8251 31.5699C30.5832 31.5699 29.46 30.7547 29.0389 29.54C28.8715 29.0649 28.6771 28.5898 28.4557 28.1417C27.8942 27.0026 28.0994 25.6529 28.9687 24.7837L30.27 23.4826L27.4568 20.7401L26.2095 22.0574C25.3402 22.9266 23.9957 23.1317 22.8618 22.5757C22.4136 22.3543 21.9384 22.16 21.4633 21.998C20.2538 21.5823 19.4384 20.4701 19.4384 19.2284V17.3929L15.5076 17.4415L15.5562 19.2284C15.5562 20.4648 14.7408 21.5769 13.5313 21.998C13.0562 22.16 12.5864 22.3543 12.1328 22.5757C10.9935 23.1317 9.64903 22.9266 8.7797 22.0574L7.4622 20.7401L4.71922 23.5528L6.02052 24.7837C6.88985 25.6529 7.09503 27.0026 6.53348 28.1417C6.3067 28.5952 6.11231 29.0649 5.94492 29.54C5.52376 30.7547 4.40605 31.5699 3.15875 31.5699H1.37689L1.42549 35.5002L3.13715 35.4516C4.39525 35.4516 5.50756 36.2399 5.90173 37.4222C6.07991 37.9566 6.2959 38.4803 6.54968 38.9824C7.09503 40.0784 6.86825 41.401 5.99352 42.2756L4.72462 43.5443L7.5378 46.2869L8.7203 45.0344C9.28186 44.4675 10.0162 44.176 10.7613 44.176Z" fill="#0C8D5D"/>
<path d="M18 44C12.4858 44 8 39.5142 8 34C8 28.4858 12.4858 24 18 24C23.5142 24 28 28.4858 28 34C28 39.5142 23.5142 44 18 44ZM18 25.4442C13.2845 25.4442 9.4442 29.2845 9.4442 34C9.4442 38.7155 13.2845 42.5558 18 42.5558C22.721 42.5558 26.5558 38.7155 26.5558 34C26.5558 29.2845 22.721 25.4442 18 25.4442Z" fill="#0C8D5D"/>
<path d="M42.0596 22C41.5659 22 41.0998 21.7134 40.9168 21.2462L40.5229 20.2589C40.4174 19.9935 40.1733 19.813 39.8349 19.8342C39.4355 19.8501 39.0305 19.8395 38.6366 19.8024C38.3203 19.7758 38.0041 19.9351 37.8765 20.2111L37.4382 21.1454C37.1608 21.7346 36.4396 21.9947 35.8182 21.7293L33.5435 20.7472C33.244 20.6199 33.0165 20.3863 32.9 20.0943C32.7835 19.8024 32.7946 19.4839 32.9277 19.1972L33.366 18.263C33.4936 17.9923 33.4215 17.6631 33.1829 17.4508C32.8889 17.1907 32.617 16.9094 32.3618 16.6121C32.1677 16.3838 31.8514 16.2989 31.574 16.3998L30.5421 16.7714C30.237 16.8828 29.9041 16.8722 29.6045 16.7448C29.3049 16.6174 29.0775 16.3838 28.961 16.0919L28.0788 13.8571C27.8403 13.252 28.1621 12.5778 28.789 12.3496L29.8375 11.9727C30.1149 11.8718 30.2925 11.6064 30.2814 11.3145C30.2703 10.9269 30.2814 10.5448 30.3202 10.1679C30.3535 9.85999 30.1815 9.57334 29.9041 9.45125L28.8999 9.02128C28.2841 8.75586 28.0123 8.06048 28.2897 7.47126L29.316 5.29488C29.5934 4.70566 30.3147 4.44555 30.936 4.71097L31.9568 5.15155C32.2398 5.27364 32.5727 5.20464 32.789 4.98169C33.0553 4.71097 33.3494 4.45086 33.6545 4.21199C33.8931 4.0262 33.9818 3.71832 33.8764 3.45291L33.4714 2.42841C33.3549 2.13645 33.366 1.81796 33.4992 1.53662C33.6323 1.24998 33.8764 1.03234 34.1816 0.920862L36.5172 0.076849C36.8224 -0.0346246 37.1553 -0.0240105 37.4493 0.103388C37.7489 0.230786 37.9763 0.464352 38.0929 0.756307L38.5034 1.79142C38.6088 2.05683 38.8807 2.2267 39.1913 2.21608C39.5853 2.20546 39.9792 2.21608 40.3675 2.24793C40.6782 2.27978 40.9778 2.12053 41.0998 1.85511L41.5714 0.851852C41.8488 0.262634 42.57 0.00253358 43.1914 0.267947L45.4661 1.24997C45.7657 1.37737 45.9931 1.61094 46.1096 1.90289C46.2261 2.19485 46.215 2.51335 46.0819 2.79999L45.6048 3.80326C45.4827 4.06336 45.5493 4.38186 45.7823 4.58888C46.0652 4.84367 46.3371 5.11971 46.5867 5.41166C46.7865 5.63992 47.1027 5.72485 47.3746 5.62399L48.4564 5.23117C48.7615 5.1197 49.0944 5.13032 49.394 5.25772C49.6936 5.38511 49.9211 5.61868 50.0376 5.91064L50.9197 8.14542C51.0362 8.43737 51.0251 8.75587 50.8919 9.04251C50.7588 9.32916 50.5147 9.5468 50.2095 9.65828L49.1388 10.0458C48.8614 10.1466 48.6839 10.412 48.695 10.7093C48.7116 11.0862 48.7005 11.4631 48.6617 11.84C48.6339 12.1425 48.8004 12.4292 49.0778 12.5513L50.0986 12.9919C50.7144 13.2573 50.9863 13.9527 50.7089 14.5419L49.6825 16.7183C49.5493 17.0049 49.3052 17.2226 49.0001 17.334C48.695 17.4455 48.3621 17.4349 48.0625 17.3075L47.0583 16.8775C46.7809 16.7554 46.4425 16.8244 46.2206 17.0527C45.9543 17.3287 45.6602 17.5941 45.3496 17.8383C45.111 18.0241 45.0222 18.3267 45.1276 18.5921L45.5215 19.59C45.7601 20.1952 45.4383 20.8693 44.8114 21.0976L42.4757 21.9416C42.3537 21.9735 42.2039 22 42.0596 22ZM39.8626 18.4328C40.767 18.4328 41.577 18.9584 41.8932 19.7599L42.1983 20.5296L44.0846 19.8448L43.7739 19.0592C43.4466 18.2311 43.7129 17.2969 44.4341 16.7289C44.6949 16.5219 44.939 16.3042 45.1665 16.0707C45.8156 15.4071 46.8198 15.2107 47.6741 15.577L48.4564 15.9167L49.283 14.1597L48.4841 13.8147C47.6353 13.4484 47.1249 12.5991 47.2081 11.702C47.2414 11.3888 47.247 11.0703 47.2359 10.7518C47.2026 9.85468 47.7574 9.04252 48.6228 8.72933L49.4661 8.42145L48.756 6.61663L47.8961 6.92983C47.0306 7.24301 46.0541 6.98822 45.4605 6.29814C45.2497 6.05396 45.0222 5.82039 44.7837 5.60806C44.0957 4.9923 43.8904 4.03681 44.2733 3.22465L44.645 2.43372L42.8086 1.64279L42.4369 2.43372C42.0541 3.24589 41.1664 3.72894 40.2344 3.64401C39.907 3.61216 39.5742 3.60154 39.2468 3.61746C38.287 3.644 37.4659 3.11318 37.1386 2.2904L36.8168 1.46761L34.9361 2.15238L35.2579 2.95923C35.5852 3.78732 35.3189 4.72689 34.5921 5.29488C34.3369 5.49659 34.0928 5.71423 33.8653 5.94249C33.2162 6.60071 32.2176 6.79712 31.3632 6.43085L30.5643 6.0858L29.7377 7.84285L30.5199 8.18258C31.3743 8.54885 31.8847 9.40348 31.7904 10.3112C31.7571 10.6244 31.746 10.9482 31.7571 11.272C31.7904 12.1638 31.2301 12.9759 30.3701 13.2891L29.549 13.5864L30.2647 15.3912L31.0692 15.0993C31.9346 14.7861 32.9166 15.0409 33.5103 15.7362C33.7211 15.9804 33.9541 16.2193 34.1982 16.4422C34.8917 17.0633 35.097 18.0347 34.7142 18.8522L34.3757 19.5741L36.2121 20.3651L36.5505 19.6431C36.9389 18.8257 37.8266 18.332 38.7808 18.4169C39.1137 18.4488 39.4521 18.4541 39.785 18.4435C39.8072 18.4328 39.8349 18.4328 39.8626 18.4328Z" fill="#0C8D5D"/>
<path d="M39.4894 17C38.7349 17 37.9698 16.8417 37.2417 16.5145C35.9014 15.9128 34.8778 14.8203 34.3607 13.4481C33.8383 12.0759 33.8858 10.5824 34.4873 9.24184C35.0888 7.90131 36.1811 6.87744 37.553 6.36023C38.9249 5.83775 40.4181 5.88524 41.7583 6.49218C43.0986 7.09383 44.1222 8.1863 44.6393 9.55849C45.1617 10.9307 45.1142 12.4243 44.5127 13.7648C43.5946 15.7914 41.5842 17 39.4894 17ZM39.5 7.39466C39.0093 7.39466 38.5186 7.48438 38.0437 7.66382C37.02 8.05436 36.2075 8.81435 35.7537 9.8171C35.3052 10.8146 35.2682 11.9334 35.6587 12.9573C36.0492 13.9812 36.809 14.7939 37.8115 15.2478C39.8746 16.1767 42.3124 15.2531 43.241 13.1895C43.6896 12.192 43.7265 11.0732 43.336 10.0493C42.9456 9.02545 42.1857 8.2127 41.1832 7.75882C40.645 7.51605 40.0751 7.39466 39.5 7.39466Z" fill="#0C8D5D"/>
</svg>
