<svg width="19" height="19" viewBox="0 0 19 19" fill="none" xmlns="http://www.w3.org/2000/svg">
<path fill-rule="evenodd" clip-rule="evenodd" d="M9.26441 0.220398C7.68196 0.220774 6.12798 0.641372 4.76137 1.43919C3.39475 2.23701 2.26451 3.38344 1.48619 4.76126C0.70788 6.13908 0.309416 7.69887 0.331535 9.28117C0.353655 10.8635 0.795564 12.4115 1.61209 13.7671L0 18.5625L4.94748 16.9769C6.14085 17.6356 7.46911 18.0124 8.83055 18.0785C10.192 18.1447 11.5505 17.8985 12.8022 17.3587C14.0538 16.8189 15.1653 15.9999 16.0516 14.9643C16.9379 13.9288 17.5755 12.7041 17.9156 11.3842C18.2556 10.0642 18.2892 8.68398 18.0136 7.34908C17.738 6.01417 17.1606 4.76002 16.3257 3.68264C15.4907 2.60526 14.4203 1.73323 13.1964 1.13329C11.9724 0.533363 10.6275 0.221443 9.26441 0.221418V0.220398ZM9.26441 16.5902C7.80987 16.5933 6.38672 16.1674 5.17297 15.3659L2.3161 16.2842L3.2456 13.5222C2.26707 12.1697 1.77219 10.5273 1.84069 8.85942C1.90918 7.19151 2.53704 5.5952 3.62317 4.32755C4.7093 3.05991 6.19048 2.19471 7.82816 1.8713C9.46585 1.5479 11.1647 1.7851 12.6512 2.54471C14.1377 3.30432 15.3252 4.54213 16.0226 6.0588C16.72 7.57546 16.8866 9.2827 16.4956 10.9056C16.1046 12.5285 15.1788 13.9725 13.8673 15.0052C12.5557 16.0379 10.9347 16.5991 9.26543 16.5984L9.26441 16.5902ZM13.4538 11.1826C13.2293 11.0602 12.1274 10.4684 11.9233 10.3827C11.7193 10.297 11.5662 10.2551 11.405 10.4776C11.2438 10.7 10.7928 11.1969 10.65 11.3438C10.5071 11.4907 10.3776 11.505 10.1541 11.3826C9.4917 11.0898 8.88539 10.6838 8.36246 10.1827C7.8813 9.7029 7.47386 9.15449 7.15339 8.55531C7.02789 8.32268 7.15339 8.2033 7.27072 8.09413C7.38806 7.98495 7.50846 7.83599 7.62783 7.70743C7.7256 7.59569 7.80702 7.47065 7.86965 7.33604C7.90296 7.27465 7.9204 7.2059 7.9204 7.13606C7.9204 7.06621 7.90296 6.99747 7.86965 6.93608C7.81659 6.81976 7.40337 5.68007 7.22991 5.21685C7.05646 4.75363 6.86464 4.82199 6.732 4.81689C6.59936 4.81179 6.44733 4.7873 6.29531 4.7822C6.17955 4.78068 6.06474 4.80321 5.95814 4.84834C5.85153 4.89348 5.75546 4.96025 5.67598 5.04442C5.45866 5.26481 4.84953 5.79435 4.80668 6.91669C4.76382 8.03903 5.5413 9.15321 5.64945 9.30932C5.75761 9.46542 7.12788 11.8989 9.41133 12.8957C11.6948 13.8925 11.7081 13.5905 12.1274 13.5681C12.5467 13.5456 13.4967 13.0671 13.7068 12.5417C13.917 12.0162 13.9333 11.5601 13.8803 11.4632C13.8272 11.3663 13.6772 11.3061 13.4538 11.1836V11.1826Z" fill="inherit"/>
</svg>
