<svg width="29" height="41" viewBox="0 0 29 41" fill="none" xmlns="http://www.w3.org/2000/svg">
<path d="M28.1429 10.94L18.1429 0.860213C17.8571 0.57222 17.5714 0.428223 17.1429 0.428223H2.85714C1.28571 0.428223 0 1.7242 0 3.30816V37.8674C0 39.4514 1.28571 40.7474 2.85714 40.7474H25.7143C27.2857 40.7474 28.5714 39.4514 28.5714 37.8674V11.948C28.5714 11.516 28.4286 11.228 28.1429 10.94ZM17.1429 3.88415L25.1429 11.948H17.1429V3.88415ZM25.7143 37.8674H2.85714V3.30816H14.2857V11.948C14.2857 13.5319 15.5714 14.8279 17.1429 14.8279H25.7143V37.8674Z" fill="#0C8D5D"/>
<path d="M5.71387 29.2277H22.8567V32.1076H5.71387V29.2277ZM5.71387 20.5879H22.8567V23.4678H5.71387V20.5879Z" fill="#0C8D5D"/>
</svg>
