<svg width="290" height="25" viewBox="0 0 290 25" fill="none" xmlns="http://www.w3.org/2000/svg">
<path d="M16 11C18.0217 10.0522 19 8.24313 19 6C19 2.33517 16.2824 0 11 0H0V22H11C16.7715 22 20 19.8544 20 16C20 13.3146 18.7716 11.7898 16 11ZM5 4H10C12.2825 4 14 5.26236 14 7C14 8.76923 12.2825 10 10 10H5V4ZM11 19H5V13H11C13.4456 13 15 14.136 15 16C15 17.9272 13.4456 19 11 19Z" fill="white"/>
<path d="M30 18V13H40V9H30V4H42V0H24V22H42V18H30Z" fill="white"/>
<path d="M61 22H67L59 11L67 0H61L55 9H51V0H46V22H51V14H55L61 22Z" fill="white"/>
<path d="M90 0H70V5H77V22H82V5H90V0Z" fill="white"/>
<path d="M127 0H117V22H122V16H127C133.098 16 137 12.9286 137 8C137 3.03983 133.098 0 127 0ZM127 12H122V5H127C130.228 5 132 5.56731 132 8C132 10.4011 130.228 12 127 12Z" fill="white"/>
<path d="M165 0L159 12L153 0H147L156 17C155.12 18.3269 154.304 19 153 19C152.315 19 151.848 18.2527 151 18L149 22C150.272 22.5055 151.794 23 153 23C156.065 23 159.109 21.4121 161 18L171 0H165Z" fill="white"/>
<path d="M184 23C187.978 23 190.848 21.5591 193 19L190 16C188.467 17.7376 186.283 19 184 19C179.728 19 177 15.1703 177 11C177 6.82967 179.728 4 184 4C186.283 4 188.467 5.29396 190 7L193 4C190.848 1.47253 187.946 0 184 0C176.892 0 171 4.33379 171 11C171 17.6662 176.924 23 184 23Z" fill="white"/>
<path d="M196 0V22H202V5H212V22H217V0H196Z" fill="white"/>
<path d="M228 18V13H239V9H228V4H240V0H223V22H241V18H228Z" fill="white"/>
<path d="M243 0L250 11L242 22H248L253 15L259 22H265L257 11L264 0H258L253 7L249 0H243Z" fill="white"/>
<path d="M113 12C113 18.6274 107.627 24 101 24C94.3726 24 89 18.6274 89 12C89 5.37258 94.3726 0 101 0C107.627 0 113 5.37258 113 12ZM94.3027 12C94.3027 15.6988 97.3012 18.6973 101 18.6973C104.699 18.6973 107.697 15.6988 107.697 12C107.697 8.30119 104.699 5.30272 101 5.30272C97.3012 5.30272 94.3027 8.30119 94.3027 12Z" fill="white"/>
<path d="M290 10L272 0L270 3L276 7C273.416 7.72703 272 10.1975 272 13C272 15.6782 273.59 17.1698 276 18L270 22L272 25L290 15L289 13L290 10ZM275 13C275 11.6155 276.607 10 278 10C279.393 10 280 11.6155 280 13C280 14.3845 279.393 15 278 15C276.607 15.0012 275 14.3845 275 13ZM284 14C284.073 13.6259 284 13.3952 284 13C284 12.483 284.121 11.4797 284 11L286 13L284 14Z" fill="white"/>
</svg>
