<svg width="125" height="105" viewBox="0 0 125 105" fill="none" xmlns="http://www.w3.org/2000/svg">
<path d="M74.9997 42L6.99998 0L0 13L22.9999 27C13.3091 29.9081 5.99998 39.79 5.99998 51C5.99998 61.7129 12.9608 70.6793 21.9999 74L0 87L6.99998 100L74.9997 58L69.9998 50L74.9997 42ZM19.9999 51C19.9999 45.4621 23.7771 41 28.9999 41C34.2227 41 38.9999 45.4621 38.9999 51C38.9999 56.5379 34.2227 61 28.9999 61C23.7771 61.005 19.9999 56.5379 19.9999 51ZM51.9998 55C52.2718 53.5037 51.9998 52.5808 51.9998 51C51.9998 48.932 52.4546 46.9189 51.9998 45L59.9998 50L51.9998 55Z" fill="#0C8D5D"/>
<path d="M37.44 65.7C38.68 65.1 39.42 64.04 39.42 62.62C39.42 60.3 37.5 59 34.26 59H27.74V73H34.64C38.18 73 40.08 71.5 40.08 69.06C40.08 67.36 39.14 66.2 37.44 65.7ZM30.96 61.4H33.98C35.38 61.4 36.12 62 36.12 63.1C36.12 64.22 35.38 64.8 33.98 64.8H30.96V61.4ZM34.52 70.6H30.96V67.06H34.52C36.02 67.06 36.8 67.62 36.8 68.8C36.8 70.02 36.02 70.6 34.52 70.6ZM45.8623 70.4V67.16H52.3623V64.64H45.8623V61.6H53.2223V59H42.6423V73H53.4823V70.4H45.8623ZM65.1594 73H68.8394L64.1194 65.76L68.6994 59H65.2794L61.5994 64.66H59.2794V59H56.0594V73H59.2794V67.36H61.5194L65.1594 73ZM80.9009 59H68.7609V61.64H73.2209V73H76.4209V61.64H80.9009V59ZM89.42 73.24C93.82 73.24 97.08 70.18 97.08 66C97.08 61.82 93.82 58.76 89.42 58.76C85 58.76 81.76 61.84 81.76 66C81.76 70.16 85 73.24 89.42 73.24ZM89.42 70.48C86.92 70.48 85.04 68.66 85.04 66C85.04 63.34 86.92 61.52 89.42 61.52C91.92 61.52 93.8 63.34 93.8 66C93.8 68.66 91.92 70.48 89.42 70.48ZM105.636 59H99.5759V73H102.816V69.14H105.636C109.376 69.14 111.716 67.2 111.716 64.08C111.716 60.94 109.376 59 105.636 59ZM105.456 66.5H102.816V61.64H105.456C107.436 61.64 108.436 62.54 108.436 64.08C108.436 65.6 107.436 66.5 105.456 66.5ZM37.2 83L33.36 90.52L29.64 83H26.18L31.7 93.28L31.58 93.44C31.04 94.28 30.42 94.64 29.62 94.64C29.2 94.64 28.74 94.54 28.22 94.38L27.44 96.84C28.22 97.16 28.98 97.32 29.72 97.32C31.6 97.32 33.26 96.24 34.42 94.08L40.38 83H37.2ZM48.3639 97.24C50.8039 97.24 52.8239 96.36 54.1439 94.74L52.0639 92.82C51.1239 93.92 49.9439 94.48 48.5439 94.48C45.9239 94.48 44.0639 92.64 44.0639 90C44.0639 87.36 45.9239 85.52 48.5439 85.52C49.9439 85.52 51.1239 86.08 52.0639 87.16L54.1439 85.24C52.8239 83.64 50.8039 82.76 48.3839 82.76C44.0239 82.76 40.7839 85.78 40.7839 90C40.7839 94.22 44.0239 97.24 48.3639 97.24ZM56.2556 83V97H59.4756V85.64H65.7956V97H69.0156V83H56.2556ZM75.7061 94.4V91.16H82.2061V88.64H75.7061V85.6H83.0661V83H72.4861V97H83.3261V94.4H75.7061ZM84.5864 83L89.2664 89.84L84.2664 97H88.0064L91.2264 92.36L94.4864 97H98.3064L93.2664 89.7L97.9264 83H94.1264L91.2264 87.24L88.3264 83H84.5864ZM110.237 97H113.637L107.377 83H104.177L97.9373 97H101.257L102.497 94H108.997L110.237 97ZM103.537 91.54L105.757 86.18L107.977 91.54H103.537Z" fill="white"/>
</svg>
