<svg width="22" height="18" viewBox="0 0 22 18" fill="none" xmlns="http://www.w3.org/2000/svg">
<path d="M0 5.4684V14.4C0 15.3548 0.386308 16.2705 1.07394 16.9456C1.76157 17.6207 2.69421 18 3.66667 18H18.3333C19.3058 18 20.2384 17.6207 20.9261 16.9456C21.6137 16.2705 22 15.3548 22 14.4V3.6C22 2.64522 21.6137 1.72955 20.9261 1.05442C20.2384 0.379284 19.3058 0 18.3333 0H3.66667C2.69421 0 1.76157 0.379284 1.07394 1.05442C0.386308 1.72955 0 2.64522 0 3.6V5.4684ZM3.66667 1.8H18.3333C18.8196 1.8 19.2859 1.98964 19.6297 2.32721C19.9735 2.66477 20.1667 3.12261 20.1667 3.6V4.932L11 9.7776L1.83333 4.932V3.6C1.83333 3.12261 2.02649 2.66477 2.3703 2.32721C2.71412 1.98964 3.18044 1.8 3.66667 1.8ZM1.83333 6.9768L10.5655 11.592C10.699 11.6626 10.8483 11.6995 11 11.6995C11.1517 11.6995 11.301 11.6626 11.4345 11.592L20.1667 6.9768V14.4C20.1667 14.8774 19.9735 15.3352 19.6297 15.6728C19.2859 16.0104 18.8196 16.2 18.3333 16.2H3.66667C3.18044 16.2 2.71412 16.0104 2.3703 15.6728C2.02649 15.3352 1.83333 14.8774 1.83333 14.4V6.9768Z" fill="white"/>
</svg>
