<svg width="23" height="23" viewBox="0 0 23 23" fill="none" xmlns="http://www.w3.org/2000/svg">
<path d="M20.347 23H20.1967C2.81992 22.0004 0.352686 7.33346 0.00780361 2.85731C-0.0460987 2.15559 0.180849 1.46118 0.638728 0.926833C1.09661 0.392487 1.74792 0.0619626 2.44939 0.00796242C2.51955 0.00265473 2.59 8.29407e-07 2.66074 8.29407e-07H7.32108C7.6753 -0.000342192 8.02145 0.105721 8.31472 0.304452C8.60798 0.503182 8.83484 0.785424 8.9659 1.11462L10.3101 4.42308C10.4395 4.74468 10.4716 5.09722 10.4024 5.43693C10.3332 5.77663 10.1658 6.08852 9.92096 6.33385L8.03737 8.23577C8.3304 9.90887 9.13072 11.4513 10.3298 12.654C11.5289 13.8567 13.0687 14.6613 14.7405 14.9588L16.6594 13.0569C16.9084 12.8147 17.2231 12.6511 17.5643 12.5866C17.9056 12.5221 18.2583 12.5595 18.5784 12.6942L21.9123 14.03C22.2364 14.1652 22.5129 14.3939 22.7066 14.687C22.9003 14.98 23.0024 15.3241 23 15.6754V20.3462C23 21.05 22.7205 21.725 22.2229 22.2227C21.7254 22.7204 21.0506 23 20.347 23ZM2.66074 1.76923C2.54461 1.76888 2.42955 1.79142 2.32213 1.83555C2.21471 1.87969 2.11702 1.94455 2.03466 2.02645C1.9523 2.10835 1.88687 2.20567 1.84211 2.31287C1.79734 2.42006 1.77413 2.53502 1.77378 2.65119C1.77378 2.67596 1.77466 2.70044 1.77643 2.72462C2.18321 7.96154 4.79194 20.3462 20.294 21.2308C20.528 21.2448 20.7581 21.1653 20.9335 21.0097C21.109 20.8541 21.2154 20.6351 21.2296 20.401L21.2313 20.3462V15.6754L17.8975 14.3396L15.3595 16.8608L14.935 16.8077C7.24149 15.8435 6.198 8.14731 6.198 8.06769L6.14494 7.64308L8.65639 5.10423L7.32992 1.76923H2.66074Z" fill="white"/>
</svg>
