<svg width="30" height="30" viewBox="0 0 30 30" fill="none" xmlns="http://www.w3.org/2000/svg">
<path d="M15.0201 0C6.79017 0 0.104232 6.72363 0.104232 15C0.101319 15.2695 -0.128827 15.8623 0.104232 16C0.337291 16.1348 0.865562 16.1348 1.09862 16C1.33168 15.8623 2.09592 15.2695 2.09301 15C2.09301 7.53516 7.59714 1 15.0201 1C19.6783 1 23.5491 3.38477 25.9583 7H20.9864C20.7184 6.99707 20.1289 7.76562 19.992 8C19.858 8.23438 19.858 8.76562 19.992 9C20.1289 9.23438 20.7184 9.00293 20.9864 9H27.9471V1C27.95 0.797852 28.0899 1.14355 27.9471 1C27.8044 0.856445 28.1481 0.99707 27.9471 1C27.5364 1.00879 26.9469 0.586914 26.9527 1V6C24.2289 2.35254 19.8968 0 15.0201 0ZM28.9415 14C28.5307 14.0088 27.9413 14.5869 27.9471 15C27.9471 22.4648 22.443 28 15.0201 28C10.3618 28 6.48812 26.6152 4.08179 23H9.05373C9.32175 23.0059 9.9112 22.2314 10.0481 22C10.1821 21.7656 10.1821 21.2344 10.0481 21C9.9112 20.7686 9.32175 20.9971 9.05373 21H3.0874C2.99126 20.9824 2.18915 20.9824 2.09301 21V28C2.0901 28.2695 1.85995 28.8623 2.09301 29C2.32607 29.1348 2.85434 29.1348 3.0874 29C3.32046 28.8623 3.09031 28.2695 3.0874 28V24C5.80836 27.6475 10.1433 30 15.0201 30C23.25 30 29.9359 23.2764 29.9359 15C29.9388 14.7979 30.0787 14.1436 29.9359 14C29.7932 13.8564 29.1425 13.9971 28.9415 14Z" fill="white"/>
</svg>
