<svg width="36" height="41" viewBox="0 0 36 41" fill="none" xmlns="http://www.w3.org/2000/svg">
<path d="M31.7405 3.55933C28.9293 1.19728 24.9958 0 20.0523 0H6.27435V30.3437H0V31.9256H6.27435V41H7.94715V31.9256H21.0624V30.3437H7.94715V27.1311H20.0523C24.9958 27.1311 28.9293 25.9338 31.7405 23.5718C34.5677 21.1989 36 17.8292 36 13.5655C36 9.30193 34.5677 5.93764 31.7405 3.55933ZM20.1698 25.4896H7.94715V1.64152H20.1645C24.7126 1.64152 28.2506 2.6871 30.6823 4.75661C33.098 6.81527 34.3219 9.77868 34.3219 13.5655C34.3219 17.3578 33.098 20.3212 30.6823 22.3745C28.2559 24.4386 24.7179 25.4896 20.1698 25.4896Z" fill="#0C8D5D"/>
</svg>
