<svg width="37" height="29" viewBox="0 0 37 29" fill="none" xmlns="http://www.w3.org/2000/svg">
<path d="M15.9053 0.702517L0.938477 26.0606L5.62792 28.7075L10.6753 20.1574C11.7224 23.776 15.1214 26.4282 19.1575 26.4282C23.0147 26.4282 26.2919 24.0053 27.4876 20.6301L32.254 28.7075L36.9434 26.0606L21.9766 0.704266L18.9427 2.41815L15.9053 0.702517ZM19.1557 21.3373C17.1618 21.3373 15.5456 19.7565 15.5456 17.8063C15.5456 15.8561 17.1618 14.2752 19.1557 14.2752C21.1496 14.2752 22.7659 15.8561 22.7659 17.8063C22.7677 19.7565 21.1496 21.3373 19.1557 21.3373ZM20.8203 9.33668C20.2816 9.23514 19.7249 9.18087 19.1557 9.18087C18.4111 9.18087 17.6898 9.2719 16.9989 9.44172L18.9409 6.15226L20.8203 9.33668Z" fill="#0C8D5D"/>
</svg>
